<svg xmlns="http://www.w3.org/2000/svg" viewBox="0 0 1715.78 229.18"><defs><style>.cls-1{fill:none;}.cls-2{fill:#fff;fill-rule:evenodd;}</style></defs><title>home_snow</title><g id="fotos"><path class="cls-1" d="M1715.78,67.18l-5.3-1-14.55-2.63c-12.65-2.25-31.07-5.43-54.5-9.21-46.85-7.57-113.68-17.6-194.31-27.19-40.32-4.79-84.08-9.46-130.54-13.59S1221,5.85,1169.9,3.42,1065.78-.37,1011.52.09c-6.77,0-13.59.2-20.41.31l-20.5.42L950,1.54l-10.33.37-5,.21-5,.23L850.06,6.07,0,45.65,7.79,210.39l849.59-39.56,79.55-3.7,5-.23,4.88-.21,9.48-.34,18.93-.68,19-.38c6.32-.1,12.59-.31,18.91-.29,50.43-.43,100.42.83,148.91,3.15s95.49,5.73,140.07,9.69,86.74,8.46,125.62,13.08c77.77,9.25,142.43,19,187.44,26.23,22.51,3.64,40.11,6.68,52,8.79l13.46,2.43,4.3.8Z"/><path class="cls-2" d="M29.51,136.64a3.79,3.79,0,0,0,4.61.28C32.58,137,31.07,135.46,29.51,136.64Z"/><path class="cls-2" d="M33.7,133.19c1.55-.41,3,1.42,4.61.27C36.78,133.06,35.28,131.48,33.7,133.19Z"/><path class="cls-2" d="M45.85,139.12c1.64.78,1.7-.34,4.11-.74-.83-.85-1.69-.64-2.53-1C46.43,138,46.94,138.54,45.85,139.12Z"/><path class="cls-2" d="M92.24,167.66l2,1.33c1.06-1.25,2.06-.43,3.11-1.4A3.88,3.88,0,0,0,92.24,167.66Z"/><path class="cls-2" d="M42.4,133.4c-.79,1,2.63,2.06,3.56,1,0-1.29-1.21-.4-2.51-1.67C43.3,133.22,43.12,133.73,42.4,133.4Z"/><path class="cls-2" d="M99.39,168.24c2-.06,2,1.11,3,2,.86-1.14.4-2.27-.94-3.38Z"/><path class="cls-2" d="M72.94,141.79c-.65,1.23,3,1.64,4.1-.06C75.7,140.19,74.27,143,72.94,141.79Z"/><path class="cls-2" d="M118.8,170.68c.77.11,2.22-.47,1.53.32,1,.77,2.08-1.08,3.11-1.41.79,1.28,2.48,1.77,4.55,2.31,0-2.74,3.5-2.57,6.24-3.48-1.54-.07-3.09.4-4.58-1,0,1.87-.91,1.12-3.13,2.08a2,2,0,0,0-1-1.35,3.72,3.72,0,0,1-4.1.06C120.08,169.07,118.84,169.89,118.8,170.68Z"/><path class="cls-2" d="M79.57,142.71l2,1.33c.07-.51.64-1.47,1.56-1C84,142,80.52,141.24,79.57,142.71Z"/><path class="cls-2" d="M86,133.11A5.67,5.67,0,0,0,90.62,132C89,131.79,86.08,131.4,86,133.11Z"/><path class="cls-2" d="M161.66,177.53c1.47,1,4.09.66,4.12-.75C164.41,176.92,163.05,176.68,161.66,177.53Z"/><path class="cls-2" d="M101.34,133.56c1.7.15,3.37,1.85,5.13-.07C104.76,133.07,103.06,132.64,101.34,133.56Z"/><path class="cls-2" d="M154.57,154.88c2.22.57,2-1,4.67-1.76a4.09,4.09,0,0,1-2-.66C156.4,154.72,153.83,152.94,154.57,154.88Z"/><path class="cls-2" d="M118.89,128.56c.65-1.11-3-1.08-4-2.66C113.29,127.44,117.4,127.95,118.89,128.56Z"/><path class="cls-2" d="M136.77,130.68c1.71-.16,3.4.41,5.14-.75-2-.49-4.09-.42-6.11-1.27C134,129.35,138.54,130,136.77,130.68Z"/><path class="cls-2" d="M194.2,167.89c-.68,2.11,3,.32,4.08.62C198.94,166.79,195.26,168.13,194.2,167.89Z"/><path class="cls-2" d="M198,160.7c-1.16-1.29-2.41.79-3.56-1a1.69,1.69,0,0,0-.07,2.72C195.8,160.74,198,162.39,198,160.7Z"/><path class="cls-2" d="M227.17,180c1.86.78,3.72,1.37,5.64.25C230.93,180,229.07,179.46,227.17,180Z"/><path class="cls-2" d="M124.46,111.49c1,1.23,2,.37,3,1.31,1.86-.94.59-1.82-1-2.71Z"/><path class="cls-2" d="M138.08,119.79c1.33,1.42,2.71,1,4.07,1.3C142.79,120,139.2,118.19,138.08,119.79Z"/><path class="cls-2" d="M135.2,112.36c.34.35.68.18,1,0,4.06,1.66,8.2-.09,12.27,1.18,2.29-1.17.86-2.28,2.13-3.43-2.29-1-1.85,1.19-3.61,1.07-1.91-.85-.58-1.68-2.51-1.66-.11,1.85-3,1.4-4.67,2.44-1.17-1.27-2.37-.85-3.55-1.65C134,111,137.52,111.64,135.2,112.36Z"/><path class="cls-2" d="M222.51,163.06c-1.06-.4,2-1.27,2.59-1.06,1.11-1.79-2,.32-2.53-1-2.1.82-.82,1.59-1.61,2.4a20.25,20.25,0,0,0,4.07,1.3C226.45,163.62,223.87,163,222.51,163.06Z"/><path class="cls-2" d="M100.12,82.3c1.69.73,3.36,2.28,5.11.6C103.53,82.56,101.85,81.46,100.12,82.3Z"/><path class="cls-2" d="M99.67,79.92c-.81,1.21,2.64,1.19,3.58.29C102.1,78.36,100.85,80.42,99.67,79.92Z"/><path class="cls-2" d="M106.78,82.53c1.37-.81.82-1.59,1.6-2.4-.85-.31-1.71.09-2.56-.31C105.14,80.75,105.78,81.65,106.78,82.53Z"/><path class="cls-2" d="M228.68,162.3c-.2,2.1,4.06.58,5.59,1.61C235.7,161.64,230.46,162.06,228.68,162.3Z"/><path class="cls-2" d="M88.39,60.72c1.54.37,3.88-.63,6.72-2.47C92.88,59,90.66,58.84,88.39,60.72Z"/><path class="cls-2" d="M248.1,164.05c0-1.11-2.54-2.51-4.06-1.3C244,163.79,246.55,165.65,248.1,164.05Z"/><path class="cls-2" d="M137.79,91.94c1.66,1.3,7.48.11,4.66-1.77C140.87,92,139.35,91.16,137.79,91.94Z"/><path class="cls-2" d="M173.1,113.17c.33,1.82,5.06,1.76,7.18-.1-1-.44-.54-.9,0-1.36C178,110.13,175.47,114.16,173.1,113.17Z"/><path class="cls-2" d="M115.79,71.2a5.44,5.44,0,0,0,6.14.59C119.86,72.2,117.88,69.91,115.79,71.2Z"/><path class="cls-2" d="M257.81,164.94c.77.08,1.53.18,1,.67,3.28-1.59,6.47.5,9.77-1.16C263.78,164.72,261.5,160.82,257.81,164.94Z"/><path class="cls-2" d="M160.32,93c1.16,1.48,2.4-.56,3.61-1.07a4,4,0,0,1-2-.65C161.82,91.82,161.26,92.39,160.32,93Z"/><path class="cls-2" d="M269.61,164.43c-1.24,1.25,1.57.37,2,1.33-.94-2.07,1.79-.17,3.63-1.75-1.14-1.78-2.43,1.48-3.57-.3C271,164.24,270.28,164.75,269.61,164.43Z"/><path class="cls-2" d="M275.74,165c3.29.49,4,3.15,6.62,1.6-3.15-1.09.92-2.28-2-3.37C280.27,165.64,277.37,163.74,275.74,165Z"/><path class="cls-2" d="M162.24,78.34c2.38.34,5.76-.75,3.65-2.43C163.92,77,163.15,76.73,162.24,78.34Z"/><path class="cls-2" d="M293.17,164.77c2,1.51,4.09.18,6.13.59,1,.77-.23,1.59-1.6,2.4,3.57.86,3.43-2.53,8.26-2.16-1-1.44-1.1-.78-3-2-2.28,1.32.79.4,1.49,1.67C300.67,165.48,297,163.38,293.17,164.77Z"/><path class="cls-2" d="M242.14,118.63c2.21.95,4.79-.58,5.69-1.78C245.59,116.69,243,116.76,242.14,118.63Z"/><path class="cls-2" d="M209.46,95c1.87.08.59.45,2,1.33.91-.8.38-1.59.57-2.38C211.21,93.58,210.33,94.51,209.46,95Z"/><path class="cls-2" d="M256.52,98.38c2.22.26,4.44.43,6.69-1.12C261.08,97.92,257.07,96.62,256.52,98.38Z"/><path class="cls-2" d="M225.28,59.08c1.18.88,2.38.49,3.56,1,1.79-.71-2.74-1.32-1-2C227,57.69,226.16,58.62,225.28,59.08Z"/><path class="cls-2" d="M199.11,41.12c2,.81,4.09,0,6.19-1.45C203.31,40,199.52,39.66,199.11,41.12Z"/><path class="cls-2" d="M309.57,107.8l2,1.33c.16-.51.33-1,1-.69C313.57,107.38,310.35,106.58,309.57,107.8Z"/><path class="cls-2" d="M237.78,51.43c2.19,1.08,4.45-.26,6.62,1.6.94-.8-.3-1.58-.44-2.37,1.44-.66,3.62.54,3.62-1.07-1.18-.5-2.42,1.09-3.59-.29C243,51.72,240.17,49.83,237.78,51.43Z"/><path class="cls-2" d="M319.52,99.84c.86,0,1.69.71,2.55.31,1.66-1,0-2.42-1.47-2.37C318.29,98.5,321.83,99.13,319.52,99.84Z"/><path class="cls-2" d="M267.56,49.64c.15,1.7,6.88,2.07,7.18-.1C272.35,49.83,269.93,50.85,267.56,49.64Z"/><path class="cls-2" d="M263.27,37.82c1.68,1,3.4.67,5.15-.76C266.7,37.39,265,36.82,263.27,37.82Z"/><path class="cls-2" d="M293.05,54.71c1.71.24,3.39,1.14,5.13-.07C296.48,54.22,294.78,53.79,293.05,54.71Z"/><path class="cls-2" d="M311.44,57.16c1.18.58,2.4-.29,3.58.29.55-.57-.82-1.12-1.49-1.68Z"/><path class="cls-2" d="M319.16,56c1.33,1.2,2.73-.06,4.08.62C323.89,55.89,320.28,54.36,319.16,56Z"/><path class="cls-2" d="M392.74,101.85c.54-.23.29-.46,0-.68.69-.35,1.35.32,2,.65,1.23-.42.69-2.41,2.61-1.74,1.79-1.26-2.77-.36-1-1.34C394.81,98.94,390,100.31,392.74,101.85Z"/><path class="cls-2" d="M398.45,99.39c.67.69,1.35.35,2.06,0,.75.44,1.51.88,1,1.34.85.34,1.72-.59,2.59-1.06L401.56,98C400.5,99.24,399.5,98.41,398.45,99.39Z"/><path class="cls-2" d="M410.06,105.67a5.55,5.55,0,0,0,4.12-.74C412.85,103.73,411.46,104.61,410.06,105.67Z"/><path class="cls-2" d="M347.25,60c2.2.37,2.05-2,1.1-2.73C345.76,57.34,347.65,59,347.25,60Z"/><path class="cls-2" d="M343.25,56c2.67.52,6.48,1.44,7.72-1.14C348.38,55.63,345.88,53.54,343.25,56Z"/><path class="cls-2" d="M350.84,59.65c1.72-.33,3.4.25,5.14-.75-1.7-.33-3.41.06-5.11-.6C350.43,58.75,351.53,59.19,350.84,59.65Z"/><path class="cls-2" d="M359.4,65.31c4.51-.74,5.56.38,2.65-3.1C359.87,63.25,360.1,64.27,359.4,65.31Z"/><path class="cls-2" d="M425.46,104.77a4.75,4.75,0,0,0,5.13-.08C428.88,104.46,427.2,103.56,425.46,104.77Z"/><path class="cls-2" d="M450.49,107.47c4.86-2,9-.5,11.87-3.23a46.15,46.15,0,0,0-11.31,1.53c-.51-.45.53-.91,1.07-1.37C448.65,103.23,448.5,106,450.49,107.47Z"/><path class="cls-2" d="M390.25,61.46c2.68.89,1-2.64,2.61-1.74C393.06,57.51,389.4,60.7,390.25,61.46Z"/><path class="cls-2" d="M392.85,60.4a4.59,4.59,0,0,0,4.64-1.08A5.64,5.64,0,0,0,392.85,60.4Z"/><path class="cls-2" d="M474.15,104.41l2,1.32c1-.58.49-1.13,1.59-1.72C476.54,104.31,475.37,103.48,474.15,104.41Z"/><path class="cls-2" d="M427,68.41c.78-.81-.5-1.58,1.6-2.41C426.16,65.65,423.23,68.26,427,68.41Z"/><path class="cls-2" d="M498.56,36.79c2.48,2,4.45-.42,4.67-1.76C501.69,35.06,500.12,36,498.56,36.79Z"/><path class="cls-2" d="M550.32,37.07c2.18,1.24,2-1.77,4.62-.41,1,1.27-2,.92-2.61,1.73A3.74,3.74,0,0,0,557,36.63c-1.35-.1-1.88-.44-2-1.33,2.26-1.76,4.42.82,6.69-1.12-1.19,0-2.41.39-3.56-1a6.74,6.74,0,0,1-7.18.1C550.87,34.57,553.2,35.78,550.32,37.07Z"/><path class="cls-2" d="M569.83,36.11l2,1.33c2-1.27,2.05-.62,3.13-2.09-1.83-1.14-4.75,1.86-3.06-.63C570.58,33.94,570,35.8,569.83,36.11Z"/><path class="cls-2" d="M577.48,37.69c0-.9,1.76-1.83,3.14-2.76l-1.51-1a1.49,1.49,0,0,1-1.56.36c-.07,1.29.51.89-1.58,1.72C576.94,36.57,576.4,37.15,577.48,37.69Z"/><path class="cls-2" d="M585.63,38.93c1.75-1.33,3.42-.27,5.17-1.43-2.2-.75-4.48.88-6.64-.92C583.18,38.1,584.93,37.45,585.63,38.93Z"/><path class="cls-2" d="M593.94,35.42c-1.51.81-2.07,1.62-.58,2.39a4.4,4.4,0,0,0,2.07-.71C595.38,36.53,594.85,36,593.94,35.42Z"/><path class="cls-2" d="M595.44,36.42c1,.55.43,1.13,1.49,1.67,1-.53.5-1.46,1.56-1,.56-.58-.82-1.12-1.48-1.68Z"/><path class="cls-2" d="M598.6,33.65c-.32.71,3.64,2.76,5.08,1.29C602,34.33,600.31,33.26,598.6,33.65Z"/><path class="cls-2" d="M628.24,36.62c1.23-1.3,2.41-.93,3.64-1.76-1.17-1.28-2.41.32-3.57-1C627.28,34.82,626.2,35.75,628.24,36.62Z"/><path class="cls-2" d="M644.16,35.37a3.73,3.73,0,0,0,4.1-.06l-2-1.33Z"/><path class="cls-2" d="M653.9,35.57c2,.38,4.09.37,6.13.59,1.68-.82-3.16-1.54-1.47-2.36-1.27-.34-1,.59-1.57,1C656,35.25,655,34.1,653.9,35.57Z"/><path class="cls-2" d="M660.66,31.74c1.18.59,2.42-1,3.6-.39-.23-1.27-1.6-1.42-3.54-1.65C659.79,30.39,662,31,660.66,31.74Z"/><path class="cls-2" d="M672.31,36.66c3.13-2,6.16-.15,9.23-.13,2.05-2.13-3.74-2.28-5-4-.51,1.94.27,2.09-3.16,2.76-2.18-1.43-1.85-2.5-4.54-2.32C668.36,34.92,669.57,35.28,672.31,36.66Z"/><path class="cls-2" d="M673,32.24c2.21.43,4.45-.46,6.65.24C679.44,31.54,674.91,30.22,673,32.24Z"/><path class="cls-2" d="M683.77,30.38c.84.64,1.7.28,2.53,1,1.44-1-1.24-2,.6-3.07a4.41,4.41,0,0,0-3.09.72C685.94,30.08,686,29.26,683.77,30.38Z"/><path class="cls-2" d="M698.65,29.83c.83.84,1.69.65,2.54,1-.4-.79.9-1.6-.45-2.38C700.54,29.69,700,28.85,698.65,29.83Z"/><path class="cls-2" d="M875.86,34.06c2.53,1.05,5.12.14,7.72-1.13-2.21-.51-4.4-1.46-6.62-1.6C876.17,32.25,876.32,33.15,875.86,34.06Z"/><path class="cls-2" d="M925.77,26.89c1.16,1.37,2.41-.21,3.58.28C930.16,26.2,926.73,25.42,925.77,26.89Z"/><path class="cls-2" d="M979.15,28c0,1.35,4.46,1.4,6.31.08C983.38,27.55,981.24,28,979.15,28Z"/><path class="cls-2" d="M1004.89,28.64c2.54-.93,7.15-.85,8-2.19C1010.45,26.35,1005.82,26.63,1004.89,28.64Z"/><path class="cls-2" d="M1056.52,26.84c1.87.85,3.85.14,5.73.57C1062.48,26.35,1058.26,25.37,1056.52,26.84Z"/><path class="cls-2" d="M1110.45,33.62c.24-.78,1.58-1.48,1.82-2.26a4.56,4.56,0,0,0-3.2.47C1110,32.47,1109.42,33,1110.45,33.62Z"/><path class="cls-2" d="M1275.5,160.12c3.87,1.33,8.36-1.29,12.22,0C1286.1,157.41,1279.34,159.42,1275.5,160.12Z"/><path class="cls-2" d="M1288.38,159.21c1.5,1.23,3.23,1.11,5.11-.09A9.46,9.46,0,0,0,1288.38,159.21Z"/><path class="cls-2" d="M1208.59,33.32c.49-.52.55-1.09-.29-1.73a30.87,30.87,0,0,0,8.38.13,21.27,21.27,0,0,0-10.37-1C1208.17,31.7,1207.46,32.43,1208.59,33.32Z"/><path class="cls-2" d="M1224.52,39.64c.07-1,2.57-1.8.94-3C1223.35,36.5,1223,38.43,1224.52,39.64Z"/><path class="cls-2" d="M1220.74,32.79c-.62.51.72,1.22,1.32,1.84,1.46-.54,2.1-1.16,2.36-1.82C1223.3,32.09,1221.81,34,1220.74,32.79Z"/><path class="cls-2" d="M1345.22,37.87c1.84.85,2.89-.57,3.9-1.21a4.48,4.48,0,0,0-3.21.27C1346.34,37.33,1345.57,37.57,1345.22,37.87Z"/><path class="cls-2" d="M1353.71,34.53c1.26.78,3.41-1.11,3.45-1.61C1355,32.59,1353.88,33.29,1353.71,34.53Z"/><path class="cls-2" d="M1362.65,37.74c4.34,1.39,9,.9,13.53,1.12-.73-1.71,2-1,4-1.84C1374,36.35,1369.58,37.83,1362.65,37.74Z"/><path class="cls-2" d="M1378.36,38.48c1.73,1.14,3.89-.08,5.85-.23A5.6,5.6,0,0,0,1378.36,38.48Z"/><path class="cls-2" d="M1386.27,38.54c2.06.28,4,1.29,6.19.85C1392.29,38.21,1388.57,37.1,1386.27,38.54Z"/><path class="cls-2" d="M1391.51,41.66a12.11,12.11,0,0,1,4.9,2c1.66-1.23,2.71-1.18,1.64-3.2C1397.27,42.71,1393.72,40.73,1391.51,41.66Z"/><path class="cls-2" d="M1398.05,23.36c-.9,1.43,2.91,1.15,4.14.57-.71-1-1.61-.9-2.41-1.36C1398.7,22.94,1399.06,23.95,1398.05,23.36Z"/><path class="cls-2" d="M1420,39.2c-.57.14-.37.4-.12.66l.89.82c1.69-1.39,6.8.72,10.24-.92-.61-.44-.67-.79-.32-1.08-2.57.54-5,.08-7.59,1-2.29-2,1.4-1,1.54-2.52-1-1.25-2.8,1.73-3.8.48C1420,37.88,1422.69,40.3,1420,39.2Z"/><path class="cls-2" d="M1407.48,24a21.44,21.44,0,0,0,10.13-.25A36.91,36.91,0,0,0,1407.48,24Z"/><path class="cls-2" d="M1433.63,39.82c1.7.11,1.28,2.4,3.73,2.63-.66-1.46-.07-2.2,2.58-2.37C1438,39,1435.8,39.54,1433.63,39.82Z"/><path class="cls-2" d="M1437.69,38c2.25,1.11,4.9.24,7.47-.25C1441.71,36.73,1440.9,37.77,1437.69,38Z"/><path class="cls-2" d="M1460.92,41.21c.73-.46-1.14-1.33-.18-1.76-3.42-.63-7.51,2.23-10.57-.23C1449.56,42.93,1457.8,39.47,1460.92,41.21Z"/><path class="cls-2" d="M1449.41,37.73c3.41,1.53,7.44-.1,11.27-.69C1457.3,35.34,1453.2,37.29,1449.41,37.73Z"/><path class="cls-2" d="M1458.7,33.63c-.64,1.74,3.78.4,5.28.14C1462.44,32.59,1460.3,34.54,1458.7,33.63Z"/><path class="cls-2" d="M1460.37,36c2.83.89,5.54,2.39,9,.37C1466.09,37.44,1463.61,34.78,1460.37,36Z"/><path class="cls-2" d="M1474.82,40.64c-2.74-2,1.16-3,3-1.93,1.14,1.51-1.55,1.54-3,1.93,1,1.81,2.88-.3,4,1.31,1.5-2.84,9-5.13,12.37-5.95.3-2.4-7.34.78-7.88,2.18,0-2-3.83-1-2.1-2.73-4.27,1.51-8,3.57-14,6.06C1469.42,42.87,1472.08,41.93,1474.82,40.64Z"/><path class="cls-2" d="M1489.45,39.17c-.65.47.64,1.25,1.21,1.91,1.42-.05,3.06-1.1,4.39-.66.3-.53-.42-1.22.85-1.59-1-.48-2-.67-2.95-1.16C1491.37,38.34,1492.09,40.59,1489.45,39.17Z"/><path class="cls-2" d="M1495.07,42.83c1.6.08,5.36-.23,3.05-1.91C1496,41.38,1496.46,42.25,1495.07,42.83Z"/><path class="cls-2" d="M1499,39.34c-1.26,1.44,2.29.5,2.8,1.83.73-1.2.15-1.35,2.48-1.66C1502.77,38.21,1500.68,39.7,1499,39.34Z"/><path class="cls-2" d="M7.07,132.21c-.76-.78,1.63-1.61-.45-2.37-.87.66-1.72.32-2.59,1.06,4.16.13-1.84,6.11,2.53,1.66,4.43.22,8.89-.48,13.29,1.16,2-1.52,2.7-1,3.58.28.44-.45-.65-.89,0-1.36,2-.73.59,1.29,2.51,1.66.47-1.63,1.53-1.45,4.2-4.14-1.85-.58-3.78,1-5.68,1.78-1.49-1.88-3.06-.58-4.6-.27-3.29-3-8.43-1.22-10.19-2.57-2.32,1.49,2.56,2.49,3.53,2.33C11.15,133.05,9.17,130.46,7.07,132.21Z"/><path class="cls-2" d="M51.35,144.13c2.72.82,5.45.44,8.2-.11-1.86-.65-.57-1.35-2-2C56.57,144.89,53.71,143,51.35,144.13Z"/><path class="cls-2" d="M64.15,144.29c1.49,0,2-.84.56-1.7.69-.35,1.36.31,2,.65,2-.82,1.38-1.61,2.62-2.42,3.07,0,6.13.56,9.24-.81,3.68,3.39,7.51.29,11.24,1.19-.27,2.73-5.77,1.07-6.24,3.49,5.71-1.17,9.09,1.18,15.41-1.58,1.51,1.47,2.5,2.73,5.11.61,1.35,1.46.62,3.16-1.63,3.76.82.93,1.72-.19,2.55.3-1-1.12,2.33-2.3.09-3.4,3.54,1.71,7.19-.87,10.77-.5-4.72,1.51-7.74,3-8.79,3.18,1.49,2.45,7.54-1.14,10.81-1.86.21,1.76,3.76,1.21,5.61.94.45-.46-.64-.9,0-1.36.53-.22,1,0,1.55-.36.17.56-.68,1.14.47,1.69,4.27,0,8.57-1.48,12.85-1.87.31.33,0,.67.49,1-4.58.78-6.09,2-10.33,2.87,3.55,1.48,7.17.07,10.74.86,1.24-1.26-1.57-.38-2-1.33.88-.87,1.72-.7,2.59-1.06,2.34,1,.63,2.72,3,2.68,1-.58.48-1.14,1.57-1.72-.5-.32-1,.16-1.54.36-1.17-.77-.85-3.47-2-1.33-3-1.8.63-2.67,2.63-2.41-2.59,1.08,2.92,1.16,1,2.7,1.35.6,2.78-1.83,4.14-1.41,1.48,1.27-2.21,2.24-3.65,2.43-1.29.92,1.22,1.79-.07,2.71,1.86.84,3.78-.76,5.63.26-.12,1.5-2.07,1.08-3.15,2.76,1.83,1.92,3.78-.73,5.61.94,1-1.25-2.3-.56-3-2,1.53,0,3.07-.26,4.6.28-2.27-1.35-1-2.16-.41-3.73.51-.22,1,0,1.54-.36,2.28.65-1.3,1.37,1,2C159,148.52,171,150,170,152.62c1.39-1.26,3.13-.64,3.13-2.09,2.68,1,.86,2,2.48,3-2.56-.31-5.16,1.12-7.7.45,1.51,1.47,7.47,1.55,10.74.86,1,.66-.79,1.37,1,2,2.2-1.08,4.47-2.29,7.7-.45.32-1.75,2.49-1.55,1.12-3.41,1.49,1.45,3.46-.8,6.13.59-1.45-2.45,4.23-1.09,4.17-2.78,3.7,1-2.2,2.07.43,3.05a4.6,4.6,0,0,1,4.64-1.09c.18.79-.37,1.59-.57,2.38-5.29,1-10.37-.23-14.39,1.57,1.16,1.28,2.41-.79,3.57,1,6.76-4,13.27,2,20-1.3,6.43,3.31,18.42-.5,21.44,3.09,2,.23,4.09.21,6.14.59,1.14-2.61,4.63-.8,7.21-1.46.18.57-.68,1.14.47,1.69.22-1.78,3.89-1.9,3.6-.39,5.69-2.14,11.25.75,16.92-.59-1.6-.94,1.26-1.59,2.1-2.07.91.78-2.16,1.62-1.6,2.4,4.74,1.6,9.59-.66,14.37-.88-.17,2.56,5.58,2.61,6.64.92,1,1.23,2,.37,3,1.31,2.63-3.78,13.06,1.35,19-2,4.45,3.71,12.88-2.63,16.36,1.12-1.52-.36-3.08.2-4.61.41,1.12,1.85,6.28-.88,10.25-.14,1.62.3,7.42,2.28,7.67.23,1-.81,2,1,3,1.31,3.63-1.4,7.19-.26,10.81-1.85,4.22,1.24,13.3.69,20,.73,172.7,5.13,345.78-4.79,518.9-15,1.48.76.21,1.58-.59,2.39-12.93-1.88-26,2.78-39,1.24-1,1.43-1.63,1.27-3.63,1.75-.51-.64.87-.31,1.57-1-2-.76-4.16,1.84-6.15.09-1.56.93.29,1.81-1.11,2.74-5.53-3.12-14.28-1.75-21.52.31-5.79-.33-11.58-1.17-17.44.93-.67-.33-.78-.66-.49-1-9.08,2.29-21.85.24-27.75,3.12-1.42-.88-.14-1.25-2-1.33-.53.46.48.9,1,1.34-11.58-1.82-20.8,2.81-32.8.48-1.06,2.27-6.92.38-9.75.48-4.74.17-8.09,2.56-10.26.83a16.15,16.15,0,0,1-12.3.18c-2.31.71,1.22,1.34-1.09,2.05-.49.8-3.22-1-2-1.33-2.79,1.86-5.48.35-8.25,1.48-1-.44-.54-.9,0-1.36-3.64,1.91-7.19.78-10.81,1.85-.36-2.54-.27-.26-3-1.32,0,.88-1.28,1.71-2.6,1.74,0-.57-.59-1.13-1.49-1.68-2.43,2.64-7.44-.7-12.35,2.21-.89-.55-.92-1.11-.47-1.69-6,1-20.08.68-21.58,2.35-3.09.46-6.09-1.71-9.25.81-2.83-1.53-7.93-2.32-9.21-.55-19.28-.64-36.91,1.78-56.9,1.16-1,.47-.42.91-1.06,1.37-1.57-.95-2.12-.57-4.57-1.63-10.68,2.49-25.58-1.07-38,2.59-1-.55-.42-1.12-1.49-1.67-4.79.47-9.61,1.54-14.37.88.2,1,1.35,3.87-3.2,4.81-1.35-1.33-.19-2.16-3-2.67-.75-1,2.74-2.48,3.61-1.08,1.9-1.68-3.41-2.28-3.05-.63-6.43-2.43-13,1.46-19.44-1.08-1.46,2.38-5.81,1.73-8.7-.22-1.07.47-.59.92,0,1.36-5.77-1-11.61,0-17.39-1.1-.51.57.07,1.13-.56,1.71-8.33-1-19.85,1.7-26.09-1.32-.49.34.21.67.48,1-9.2-.43-18.46.93-27.64-1-6.57,1.66-17.4.44-25.63.37-2,.82.39,1.58-1.59,2.4a3.13,3.13,0,0,1-2.05,0c2-3.79-6.31-1.62-9.15-2.59-1,1.86,2.31.3,3,1.32.89,1.43-2.34,1.08-3.11,1.4-3.36-4.33-10.27-1.47-15.29-3.18-2,.82.38,1.58-1.6,2.4-.69.3-1.34-.42-2,0-.53-.56.88-1.15,1.57-1.72a3.84,3.84,0,0,0-4.62.41c-.08.68,1.7,1.33-.05,2,1,.67,2.07-.52,3.06.64-1.74,1.42-3.4-.44-5.16,1.44-1.65-2-3.39-1-5.09-1.29-.41-1.68,3.37.31,4.63-1.08-3.27-2.22,1.43-.9,2.61-1.74-4.91-2.35-4.48.42-9.19-1.22-.88.69,1.39,1.33,1,2-.52.33-1-.14-1.53-.32-.8.91-.32,1.26,1,1.34-2.62,2-5.17,1.27-7.77,3.17-1.57-.66-2.46-.7-2-2-2.22.06-4.52,2.91-6.71,1.79-1.18-.66,1.63-1.38,2.1-2.06-1.68-.91-3.13.84-2.6,1.73-1.57,1.07-3-1.34-4.6-.27-.57-.67,1.21-1.38-1-2-2.38,2.64-10.24,3.4-10.26.82-2.23.24-4.42-.92-6.69,1.12-2.75-2.69-6.93.6-8.15-1.92-2.76,4.11-9.44-2-13.87,1.22-4.25-.83-8.55.31-12.79-.84-1.41-.93,2.62-.15,0-1.35-6.93,3.3-13.63-1-20.52,1,.83.64,1.7.28,2.53,1,.42.45-.7.92,0,1.36-3.07-.26-6.1-1.85-9.17-1.91-.56.86.84.66,1.51,1,.9,1.22-2.3-.24-3.11,1.4-.14-.9-.65-1.24-2-1.33-2.73,3.91-8.12-1.19-12.34,1.54-1.83-.88-1.8-1.78.06-2.72-1.33-1.21-2.73.06-4.08-.62-.55.57.84,1.12,1.5,1.67-1.41,1.46-2.77,1.1-4.14,1.42-.75-.67-.25-1.36,1.08-2.06-3.61,1.36-7.17.25-10.77.5-.57-.67,1.21-1.38-1-2-2.1,3.56-13,1.31-16.48,3-1.13-1.65-5.22-1.15-2-2.69-2.2-.33-2.4.6-2.61,1.74-2.15.27-2.64-3.21-5.6-1.62,1,1.15,2.06,0,3.06.63-.69.35-.82.69-.53,1-5.13,0-10.2-1.92-15.39.9.17-1.89-.25-1.64-2-3.37-1.59,1,.47,2,1.45,3-2.8,2.82-5.42-1.57-8.21.8-3.11-1.2,1.34-2.51-.42-3.72-1.9,1.26-.91,2.5-1.64,3.75-2,1.26-2-1.28-3.06-.64-.52-.56.89-1.14,1.59-1.72-1.79-.44-4.61.59-3.63,1.75-3.56-2.23-3.52-.16-6.08-2.63-3.39,1.4-3.69.88-7.18.11-.47.91,1.39,1.79-1.1,2.73l2.52,1.67c1.87,0,.93-1.79,3.07,0,1.07-.47.59-.92,0-1.36,3.17.06,13.07-.86,11.2,2.55,1,.78,2.08-1.08,3.1-1.4,1.73,1.35.3,2.51-1.61,3.07,1.06.41,6.29.14,4.14-1.41,2.23-.56,4.41.91,6.69-1.12.92.78-2.15,1.62-1.6,2.4,1.75,1.34,7.05-1.38,5.6,1.62,1.29.78,1.84-1.08,1.06-1.38a10.4,10.4,0,0,1,5.61.94c.5-.57-.07-1.13.56-1.71,1.21-.61,2.38.22,3.6-.39a2.54,2.54,0,0,1-.56,1.7,30.56,30.56,0,0,1,13.35-.87c1.17.94-1.59.14-2.09,1.39,1.51.94,3.08-.59,4.58,1a6,6,0,0,1-6.14-.59c-1.6,2.88-7-.35-10.28,1.5,6.78.78,12.82-.11,18.43.41,1.23-1.26-1.58-.38-2-1.33,3.32-2,3.31,2.88,6.63.92-1-.31-2-.32-3.06-.63,1.41-1.81,2.72.38,4.14-1.42,1.31.55.22,1.13-.56,1.71.85.12,1.72-.46,2.56.3.89-2.34,9.71-1.12,13.85-.54.88,1.61-2.3-.7-3.09.72a92.72,92.72,0,0,1,21,0c.52.56-.89,1.14-1.57,1.72a2.19,2.19,0,0,0,3.63-1.75c3.06-.45,0,2,3,2.67,2.86-.83-2-1.56-.45-2.37,4.27,0,8.59-2.1,12.8.16,1.6-2.42,3.48-1.34,6.21-2.13,1.85.65.57,1.35,2,2,3.28-1.51,6.52-1.19,9.77-1.16.74,1.27-2.7.9-3.62,1.07,2.12,1.36,6,.32,8.74-1.14,1.95.76-.45,1.59,1.48,2.36-1.44,1.15-3.64.29-3.64,1.75a44.65,44.65,0,0,0,16.48-3c2.85,1-1.86,2.06.42,3,5.47-.27,11-.79,16.37,1.12,2.76-2.27,4.62-.45,6.14-.08,1-.7-.7-1.35,1.08-2.06,3.94,2.19,13.27-1.65,13.79,1.5,6.37-.49,15.28,1.41,20-.63,3.19,1.87,6.5-.25,9.68,2.24,2.27-2,4.44-.28,6.73-2.48,1.85.65.56,1.36,2,2,12-.12,23.94-1.15,35.84.84.33-.89,1.62-1.71-.47-1.69,9.88,1.06,19.76,1.85,29.71.25,2.41-.9,4.74,1.57,7.14,1.26.44-.46-.66-.9,0-1.36,3,.65,6.93,1.43,11.27-.16l3,2c10.47-2,20.87-.89,31.26-.11.32-.35,0-.68.54-1,18.07,1.18,36.23-.67,54.31-.11,2.79-2.18,15.21-.48,23.08-.67,4.26-.1,7.6-1.47,10.74.19l2.1-1.39c2,2.46,6.67-1,10.21,1.21,8.62-2.58,21,.07,31.3-2.15l2,1.33c13.22-2.68,26.3-.07,39.53-2.94,5.74,2,11.66-1.51,17.4.42,3.48-2.07,6.82.27,10.28-1.51,9.53,1.18,19.13.16,28.72-1.09,21.18.13,42.44-3,63.61-3l2.09-1.39c.91-.37.92.56.48,1,11.26-1.48,19.44-1.54,30.83-3.16l2,1.33c2.13-.27.83-2.51,4.14-1.42.52.64-.86.31-1.56,1,1.4.39,3.63,0,3.61-1.07,41.68-1.57,82.67-4.83,123.62-8.43l29.58-2.37c9.87-.73,19.79-1.29,29.71-1.93,19.88-1.08,39.89-1.88,60.1-2.09l1.58-1a58.35,58.35,0,0,0,8.22.21c2.76-.07,5.53-.27,8.3-.43,5.54-.33,11.07-.54,16.48.58,2-.36,3.77-2.59,4-.46,1.59-1,6.17-1.48,9.06-.11l2.13-1.22c3.83.29,7.61.94,11.6-.25a121,121,0,0,0,13.87.86c4.65.1,9.33,0,14,0,9.34,0,18.66.13,27.73,2.42l2.17-1.17c2.92,1.83,8.39,1.65,10.09.21.89.65.3,1.16,1.29,1.82,1.57-2.45,3.13-.77,4.54.06,5-1.84,10.82-.83,17.27-.39.81.65.77,1.22.27,1.74,1.5.44,2-2.27,4.64-.57.52-.29-.13-.7-.36-1.06,1.59-.49,2.92.88,4.65-.57,1,.55.42,1-.19,1.34a19.1,19.1,0,0,1,8.29-1.23c1.21,1.83-1.78.78-3.29,1.73,6.25-1.19,12.4-1.39,18.6-2.15l2.26,2c-.66,1.49,1.51-.71-.81-1.45,3-1.47,5.47-.84,9.41-1.73.52,1.52,4.17,1.25,1.71,2.24,1.65.67,1.9-1.84,5,.53,2.5-1.17-1.12-1.19-1.8-1.56,3.79-1.47,7.06.52,10.88-1.15.43.51-.63.84-1.21,1.23.94.5,2.12-.54,2.9,1-.7-2,1.86-.58,3.87-1.95,8.43,3.36,19.05-2.83,26.27,1.75,2-2.88,7.34-1.8,10.59-2.11-.39,2.14-4.43.14-6.35,1.27.73.74,1.62.5,2.34,1.31-3,.61-6.17,2.29-9.12,2.63.69-3.47-7.52-.77-9.12-.43,5.62,2.23,15.27,2,21-.49.43.63-1,1-1.78,1.49,3.17-.12,9.62.49,10.13-2.51,2-.46,1.1,1.45,2.23,2,6-1.56,9.67-1.16,16.38-3,7.72.85,15.45,1.57,23.78-.93,4.45,1,11.94.22,15.2-1.67,4.81,1.22,11.72.22,18.95-.3s14.77-.6,20.81,2.63c-2.54-4.66,7.88-1.45,7.74-5.36,2.63.66,6.08-2.92,8.3-.11a49.55,49.55,0,0,1,32,3.27c1.54-.9,3.21-1.78,2.68-3a5.66,5.66,0,0,1,4.74,2.15c1.84-1.33,3.19-.39,4.72-.26,1-1.74,2.35-1.29,3.69-2.84-.83-1-2.12.27-3-.49,7-1.43,18,0,25.53,4.57,1.39-2.31,4.38-2.45,7.58-1.47,7.13-4.11,15.79-5.58,24.24-6.16l2.58,2.53c-.48-2.29,4.76-1,7.18-1.84.13.48.27,1-.29,1.33,7.44.16,14.34.69,20.69-1.46,7.77.48,18.22,1,25-1.93,5.13,1.18,15.44-1.26,19.89-2.11,7.52-1.43,14.19-2.47,20.13-5.08-1.93-.35-1.73-1.5-2.55-2.58,1.6-.79,2.76.26,4.35-.53-2.36-1.08-3.69,0-4.88-1.66-2.93,1.89-6.61-2.09-7.95.2-1.33.46-2-1.72-3.13-2.34a74.14,74.14,0,0,1-9.81-.85c3.25-1.17,4.63-1,9.15-3.08-12.21-1.12-28.77-3.17-43.47-.89a5.38,5.38,0,0,1-3.88-1.4,2.35,2.35,0,0,0,.13,1.75,20.91,20.91,0,0,0-4.77.18c-1.67-3.4-8.39.65-11.55,2.41-1.26-1.37,1.11-2.1,2.76-3-1.49.18-3.48-1.09-3.16-2.29,2.77-1.06,3,.29,5-1.51-1-1.19-2.84,1.75-3.6-.3-2,.33-.9,1.22-2.46,1.63a3.15,3.15,0,0,1-2-.36c.22-1.11,2.61-1.84,2.76-3,.55-.12,1,.18,1.58-.06-1.54,1.86,3.07,1,5,.9.85.73.21,1.19,1.16,1.93,4.65-.33,6.11-3.64,10.28-3.68.17,1.3-3.88,1.84-5.36,2.83,1.82.34,5.81.23,5.06-1.5,4.65,1.93,10.19-.12,15.48-1-2.8-1.54-6.45.58-9.69,1,2.42-2.92,8.72-2.93,11.71-.6,4.3-1.14,8.55-2,12.15-.14,13.06-2.51,24.77.85,37.67-.71-2.32-2.08-5.31-1.4-7.46-4.23a11,11,0,0,1-8.37-2.66c-1.06.26-.6.81-1.32,1.13-1.67-2.61-4.38-.9-6.33-2.26-.85-1,.54-1.51,2.05-2-2.39-1.82-5.48-.67-8.1-1.54-1.89-1.17,1.34-1.36,0-2.41-3.77-1.67-6.42.51-11.19.3-1-2.06,4.57-2.58,6.57-3.24a4.76,4.76,0,0,1-2.31-1.48c-.55.24.08.7.29,1.09-2.21.49-3.1-1.12-4.37.56-.84-.74-.19-1.19-1.14-1.94-3.66.58-7-.32-10.31-1.21-1.42.66-1.63,1.54-.6,2.65a5.66,5.66,0,0,1-3.35.77,12.16,12.16,0,0,1-1.12-4.35c4.18.27,10.82-1.33,12.53-3.91,6.46.27,13,.36,19,2.54-1.07-2.93,3.47-1.27,6-.59.44,1.54-2.65-.55-3.79.31,2.37,1.92,5.77-.48,8.59-.43,1.74,1.23-1.52,1.43,1.13,1.95,1.07-2.16,8.09-1,11.65.19,3.46-1.56,6.81,0,11.21-.21.85-2.2-3.58-1.14-4.91-1.66,3.78-.73,12.95-1.72,18.79,1.67,4.85-2,19,3.42,21.42-2.19,3.6,1.49,5.65-1.2,8.51.4-.19,1.16-2.2.39-2.13,2,8.73-.76,17.59-2.58,19.4-6.95-1-.74-2.26-1.52-3.14-2.32s-1.39-1.6-.74-2.35c-4.17-2.41-11.27-3.26-11.65-7.7-2.47,1.45-6.1,0-7,2,.6.48,1.45,0,2.22-.23.73,1.47-.42.82-2,1.33a4.5,4.5,0,0,0-3.77-2.17c-1.32-1.08-.59-1.74,1.09-2.2-1.28-.48-2.58-.41-2.81.45-2.71-3-10.43-2.19-15.69-1.82-5.08-4.07-12-.85-18.35.5l-.87-.87c3.11-3.14,8.88-2.3,12.28-4.14-.8-1.14-2-.53-2.76-1.94-9.55,2.17-14.71-.13-23.77.89-.24-.39.16-.67-.28-1.1,3.2.11,8.21-.73,10.16-2.18-1.13-1.26-2.78-.32-3.94-1.46.33,1.52-1.11,1.61-2.8.49a2.75,2.75,0,0,1-.63,2.65c-2.84-1.3-9.79-1.21-9,1.72-1.46.84-.13-2.18-2.32-1.48-.18-.74,2.17-.33,1.49-1.79-2-.59-4.36,1.67-3.85,2.72-1.48.24-.79-2-2-2.8-2.93.49-1.37,1.82-3.25,2.5A.84.84,0,1,1,1617,69c-2-1-1.94,1.2-2.51,1.61-.61-.24-2.54-1.46-2.61-2.56,1.49-1,2.59-.42,4-1-2.82-1.7-4.65.48-4.71,1.88-3.69-.28-7-.71-10,1.58-2.47-1.37.66-1.71-.41-2.84,2.18-.2,4.29-.08,6.44-.19q-2.53-2.55.92-4a1.72,1.72,0,0,0-2.78.51c.05-1.65-2.42-.53-2.61-2.56-3.19,1.33-5.79.84-9.67.3-.55-1.09,3.08-1.27,3.66.32.58-.13.38-.39.16-.66l1.17-.47c-1.78-1.55-4.11-.69-6.29-.47-.74-1.52.65-2.65-.11-4.16-1.36,1.22-1.3.57-3.53,1.42-1.75-1.13-1-1.79-2-2.79-1.41.32-1.25.93-1.9,1.37-1.31-.92.12-1.36-1.6-2.36-3.26.27-6.3-.45-9.37-1-1.07-1.71,1.38-.64,3.07-1.86-1.34-1.15-3.34.61-4.54-1.16-.09.55-1.35.91-.88,1.57-7.26-2.51-15.53-.51-22.86-2.64-.62.35.3,1,.73,1.51a7.27,7.27,0,0,1-4,1c-1-5.61-10.33-.17-14.5-1.8,2.18-4.56,7.49-2.42,12-3.82-2-1.42-5.09.55-5.43-2l-3.51,1.47c-1.17-.77-.77-1.28-1.19-1.92,1.37.27,3.06-1,4.26,0-.48-1.6,1.45-.65,2-2.07-1.84-3-5.53,2.6-7.34-.54-2.66,1.5-5.43,3-7.88,4.52-1.89-1.23-.64-1.95.57-2.66-1.36-2-3.33-1-5-1.53.19.95-.47,1.76-2.62,2.32.95.55,2.22-.42,2.95,1.18a5.74,5.74,0,0,1-5.14-.86l-5.25,2.24c-.47-2.1,1.26-1.44-2.22-2.09-2.28-1.29,1.49-1.59-.47-2.83-1.32,3.14-4,1.72-7.72,3.91-3-1-6.07-1.49-9-2.84-2.93,2.82-6,3-9.89,4.28-2.17-1.26,2.05-1.52,1.57-2.5-4.76-.39-10.25,3.48-12.78,5.56,4.7,1.46,6.9-2.79,10.18-3.22.8.7.73,1.26.18,1.74,1.23.81,3.62-1,2.46-1.68,3.89,3.24,13.61-3.53,18.89,1-4.25,3.4-12.16,2.45-17.24,1.33-4,4.18-11.27,2.81-17.95,2.34,2.2-1.79,3.49-3.14,4.28-5.52-1.66,1.21-2.89.36-4.51,1.35-4-4.27-6.68,1.07-10.59-2.67a50.51,50.51,0,0,1-8.16,1.17c1.31.77-.47,1.08.19,1.75-1.48.3-2.78-.29-4.38.71-2.14-1.58.88-2,2.44-1.69-.24-1.59-6.47-.45-6.55,1.08-2-.42-4.35.64-6-1.61-2.88-.59-6.46,2.51-9.18,1.07-1.59-2.18,1.81-3.63,3.66-5.31-3.78-.24-5.8,2.34-10.81,1.19-1.63-1.54-.59-1.71-2.84-1.78-1.9,1,3.13.88,1.23,1.9a10,10,0,0,0,4.69.33c.49,1.83.06,1.59,2.84,1.79.44.52-.68.81-1.28,1.18-1.49.41-2.41-2.16-3.86-1.93-.08.56-1.32,1-.83,1.6-1.83.31-3.42-.61-5.14-.74-.62-1-.06-1.27,1.28-1.18,1-.21.35.62,1.35,1.22.42-1,1.34-1.86.06-3.08-7.87,4.41-14.72,3.39-22.06,5.11-.7-.55-1.39-1.1-.79-1.48-.72,1-6.34,2.26-9.86,2.07-.2-1.79,5.51-2,5.29-3,1.22,1.66,2.64,1,.58-.26a60.14,60.14,0,0,1-15.92.55c-1.38-2.48,5.63-.84,5.86-3.31-2-.15-2.57-.94-3.78.51-6.56-2.56-19.48,1.34-26.58,1.32-1.4-1.1,4.29-1.27,1.5-2.55-1.2,1.8-3.86,2.06-6.2,2.28,1.49.53,2.95,1.26,4.59.95.26.37-.12.66.34,1.07-3.3.86-6-2-9.5.14-.89-.68-.26-1.17-1.26-1.87-2.69,1.3-4.91,0-7.45.45-.81-.66-.77-1.23-.24-1.74-1.12-.65-2.57.74-3.55-.78-1.14.32-.72.83-.22,1.35-9.53-1.3-16-1.36-25.56-1.35-.68-.77-.08-1.38,1.36-1.89-1.53-.33-3.2.3-4.71-.2-2.61.62.85,1.92-1.45,2.57-2.2-1.62-4.7-1.28-7.32-.15-1.36-.85,0-1.37-1.76-2.25-1,.68.15,1.61-.88,2.29-2.64-2.21-2.4-.05-6.3,0-1.35-.84,0-1.37-1.75-2.25-.49.51-.57,1.07.26,1.74-3.38.68-10.19-2.19-9.83-4.48-5,.84,3.69,2.36.43,4.15-1.77-.2-1.13-1.06-3.36-2.06-2.57,1.09-5.31-.45-6.61,2-2.27-.18-4.88-.18-5.45-2.29l-2.83,1.41c1.69,2,.84-1.37,2.53.61-1.68,2.39-9.1-.1-13.83,1.31.89-1.3.55-2.47,3-2.78-3.39-2.16-4.49,2.25-8.19,2.28-2.11-2.35-4.8-.65-7.34,0-2.67-2.13-5.74-1.49-8.75-1.19-.59-1.53,2.77-.3,3.85-1.34-.93-1.11,1.66-1.89.95-3-3.06,1.79-7.2,1.79-10,3.81-.77-.71-2.09-.23-4-1-.93-2.07,6.25.09,2.43-2.52,1.73-1.23,3.06.66,4.8-.56-1.37-1.73-6,.69-5.56-1.55-1.81,1.08-3.63.43-6.51,1.48.4-2.75-3-.25-5.49-2.18-3.38,1.76-6.42,1-9.69,1.88-.18,1.38,2.34,2.58,4,1.71-.51,2.33-5,.65-6.87.42-.39-1.08,1.11-2.06,1.86-2.22-.27-1.13-1.76-1.27-1.74-2.88-.44,3-3.13.6-6.09,2.54,1,1.87,2.46-.07,3.5,1.33-1.75,0-3.63,1.13-5.19-.45-.46-.69.91-.23,1.68-.88-.69-.72-2.18-.5-1.43-1.15-1.84-1.16-.9,2.16-2.64.13.44,1.17,1.35,2.37-.42,3.37-2.5-.16,0-1.15-1.83-2.18-1.49.68-1,1.51-.81,2.32-.88.06-1.68-.56-2.64.14-2.59-1.68,1.86-2.81,0-4.43-.65.86-1.64,1.69-1.37,2.62-1.91,1.39-3.28-1.72-5.28.28-1.86-.94-1.17-1.68-2.31-2.56-2.43,1.22-4.58.21-6.81-.18-1.47,2.26-5.27,1.36-8,1.09-1.37-.79,2.81-1.14.23-2-2.49,1.94-5,.77-8.48.78-2.22.65.83,1.64-.78,2.33-3.06.21-.39-2-2.83-2.91-1.38,0-2,.34-2.23,1.22-4.8-4-10.64,1.42-15.62-1-1.95,2.18-3.06,1.75-6.59,3-.94,0-1.5-1.39-3.55-1.21-.45-1.73,3.17-.78,4.38-1.8-3.15-1.21-5.65.1-8,1.26-2.56-.7-1.31-1.45-2.86-2.88-2.11.39-3.26-.64-4.31,1.13l-2-1.46c.79,1.87-4.8,2.38-6.81,0-1.79,2.41-3.2,1.29-5.84.7-2.2,1.12.21.41.93,1.41-1.3.84-2.44-.07-3.68.14-1.93-1.7-.53-1.65.25-2.7a9.11,9.11,0,0,1-6.59-2.68,1.54,1.54,0,0,1,1.6-.27c-.26-1.3-5.17-.78-7.27-1,5.45,1.15,4.36,3.33,9.62,4.13-5.08,2.75-5.51-2.2-9.3-1.74.06,1.48,3.9,3.11,3.28,4.55-1.34-1.34-4.93-1.2-6-3-1.53,1.41-1.65,2.88-3,4.3.72-2.41-1.91-2.34-3.9-3.56-1-.95,2.32-1.71.22-2.71-1,1.07-1.46,1.06-1.27,2.67-1.39,0-3.27-1.29-2.15.6-1.55-.07-3.05-1.07-4.56-1.89,0-1,4.78,0,3.86-2.22a40,40,0,0,1-8.56,1.79c-3.23.3-5.8,0-4.57-1.94-1.57-.15-3.26,1.44-4.74.21-2.36,3.19-7.84.57-11.84,3.75-.86-2.26-4.13-.86-3-2.8-1.77-.56-1.41,1.74-3.82,2.28-4-.25-8-1.29-12.13.76-.39-1.9-3.86-1.34-4.2-.05-1.47-1.81-3.12-.65-4.63-1.75.46,1.11,1.26,1.13,1.95,2.74a6.93,6.93,0,0,1-5.14-2.1c-2.77-.33-1.47,2-5.24-.06-.23.56.6,1.13-.62,1.69a11,11,0,0,1,6.77,1.1c-3.84-.06-7.68-.29-11.54-.13-.31-.34,0-.68-.48-1,1.79-.63,5.06.78,5.32-1.3-2.74-1.07-5.19,1.65-8.91-.44-.73.5-1.46,1-2.14.65-.45.56-.47,1.12.45,1.7-2.34,1.18-4.57,0-6.89,1-1.89-.67-.56-1.35-2-2-2,.89,1.1,1.68-1.66,1.7-2-.87,1.24-1.69-1.5-1.69-1.49.57.21,1.13-.6,1.7-4.06-2-8.58-1.91-12.91-1.58s-8.5.9-11.69,0c-.85-.66,1.46-1.38,1.08-2.05-2.88-.61-5.88,2.55-8.71-.21-.42.57-.43,1.13.46,1.7-1.06,1.25-2.06.43-3.11,1.4-1.32-.55-.21-1.13.56-1.7-1.51-.87-3.08.23-4.61-.27-.53.46.48.9,1,1.34-1.06,1.19-2,0-3.1.72-.16-.56.69-1.14-.46-1.69l-2.09,1.39c-1.42-.66-.14-1.35-2-2A105.19,105.19,0,0,1,900,31.34l1.5,1c-1.36,0-2.78,1.55-4.12.74-1.32-.55-.22-1.13.56-1.71-3-.75-8.4,1.14-9.79,1.84-.8-1.4-2-1.7-4.08-.62,2.63,1.26.28,1.35-1.09,2.05,4.69-.78,6.69,1.14,11.78.17.54-.65-.49-.25-1-.67,1.07-1.53,2,.81,3.1-.72,1.61,1.65,1.64,1.2,4,2.66-6-1.3-14.12,1.77-18.44-.41-.33.35,0,.69-.55,1-2,.74.46-1.3-1.48-1.67-3.16,2.85-6.19,1.23-9.26.81-.87,1.9-3,1.81-5.16,1.44.74-1.37,2.57-2.76,1.14-4.09,1.52-.46,4.11,0,4.15-1.42-2,.27-2,0-3-1.32-.84,1.55-2.2,1.24-2.64,2.41-1.72.56-3.4-.69-5.15.75-2-2.43-6.61-1-10.25.15-.1-2.06-1.92-1.85-4.61-.27-.39-.56-.36-1.13.57-1.71-3.39-.89-6.88,1.49-10.28.83-.93.69,1.3,1.34-.06,2-1.05,1-2-1.7-3.07,0-.89-.55-.92-1.12-.46-1.7-1.64-.27.1,1.88-2.6,1.06-1.29-.66-1.76-1.33-1-2-2.59,1-7.26-.68-8.25,1.47-1.43-.66-.13-1.36-2-2,0,2.1-2.68.38-2.57.37-3.61.37-4.78,3.09-8.75,1.14-.69,2-4.94,1.15-7.22,1.46-.17-.56.68-1.14-.47-1.69-1.6,2.26-4.08.17-6.74,2.47-.81,1.44,2.63,1.76,3.56,1,.92.27-2.36,1.61-3.11,1.41-1,1.64,2.31.35,3.05.63.52.56-.88,1.15-1.59,1.72-.82.2-2.91-2.07-5.12.08-1.32-.77-2.55-1.55-1.48-2.36-1.85-1.17-3.78.67-5.61-.94-.48.91.07,2.07-2.11,2.07,1.16-2.54,5-4.41,8.88-5.9-1.7-.2-3.38-.92-5.08-1.28-.76.68-1,2.08-2.59,1.06-.52.57.06,1.13-.56,1.71-2.3,1-1.31-.78-3.54-1.65.4,2.84-8.67,3.42-9.76.48,0,1.69-2.17,0-3.63,1.75,1.67,1.19,3.43-.58,5.1.61-.06,1.27-4.42.15-6.14.08-.18.68-.74,1.37-2.11,2.07s-1.19-1,0-1.36c-1.79-.49-1.91,1.81-.58,2.39,1.21-.52,2.39.32,3.61-1.07.48.67.51,1.35,1,2-2.42,1-4.76-1-7.17.1-.53-1.3,3.57-3.88.11-4.08.61,1.83-.73,1-2.62,1.74-.29-2,1.74-.93-2-2-.21,1.32-.41,1.77-2.63,2.41-.84-2.56-3.84,1-6.11-1.26,6.19-.49,11-2.72,18-1.28-2.54-2.25,4.71-1.14,3.69-3.79-.83-.64-1.7-.28-2.53-1-1,2.25-5.28.71-6.14-.59,1.47,1.92-2.41,1.83-.61,3.74-1.37-.08-2.77,1.06-4.11.06-1-1.07,4.12,0,.57-1.71,1.07-1.53,2,.82,3.1-.72-1-.56-.42-1.13-1.49-1.68-3,2.32-3.85.58-4.59-1-.08,2.84-6.6,1.1-9.78,1.84-1.08,1.31.16.89,1.49,1.68-3.43,2.36-9.09.35-10.83,2.53-2.08-.76.31-1.59-.45-2.37,2.74-.13,5.49-.66,8.2-.12a1.68,1.68,0,0,0,.08-2.72c-.7.71-1.38.4-2,0-.25.46-.5.92,0,1.37-2.85-2-10.55.23-12.36,2.22,1.29-3.47-3.71-1.59-5-4a2.76,2.76,0,0,1-2.58.38c-1,1.86,2.31.3,3,1.31.88,1.4-2.1,2.39-4.74,4.48-2.35-1.82,2.19-2,2.15-3.43-2.56-1.26-2,.21-4.64,1.09.87.78.3,1.58.45,2.37-1.22.53-2.36-1-3.6.39,2.19,1.33,4.48-1.56,6.64.92,2.6-1.46,5.21-2.7,7.76-2.49.91.82-2.34.6-3.09.72-1,1.24,2.67,1.18,2.06,0,.68,6.64-14.65,1.37-22.66,3.72.75.45,1.51.89,1,1.34,1.17,1,2.43-1.09,3.58.29.27,1-3.79,2.28-5.15.75,1.06,1.59-3.31,3.82-5.18,2.12-.61-.36,3.06-1.53,4.12-.74-.7-2,1.11-2,1.65-3.76-2.23-.74-1.55-1.25-4-2,3.67-.83,5.82.5,10.32-2.19-2.17-1.56.19-1.61-3-2.68.07,1.14,2,2.24-1.11,3.42-3.42.09-6.82-.56-10.26.15,1.29.66,1.77,1.33,1,2a21.22,21.22,0,0,0,4.6.27c-.11,1-2.09,1.61-3.13,2.09-1-.44-.54-.9,0-1.36-2.94-.86-.77,2-4.14,1.42-.19-1,1.08-2.06.61-3.07-3.63,2.63-10.57.23-14.44,2.93-.73-.78.58-1.6-1.47-2.36-1.9.82-3.76-.07-5.7,1.78,1.34.65,1.85,1.33,2,2-2.42.84-4.8.25-7.22,1.46-1.17-1.33,1.75-4,4.15-2.1-1.15-1,.79-2-.42-3-2.12,2.44-4.47,1.53-8.8,3.18,1.16,1.38,2.42-.68,3.58.29-.11,1.67-3,.32-4.66,1.76-1-.55-.42-1.12-1.49-1.68-1.17,3.7-6,0-8.76,1.82-1.44-2.49,3.95-1.88,4.19-3.46-.5-.31-1,.17-1.54.37-2.28-.64,1.3-1.38-1-2-1.83,1.07-4.59,0-3.64,1.76-1.76,1.53-3.4-.63-5.13.07-.4-.89.53-2.19,2.08-1.39-.38-2.34-6.61,2-7.14-1.25l-3.13,2.08c1.28.54,1,1.12,1.49,1.68-2,.85-2-.44-3-1.32-3.17,2.77-6.24.25-11.77-.85-3,2-9.71-.69-14.37.89-.09,1.61,2.17.35,3.56,1-.75,1.81-5.84,1.5-8.24,1.48-.86-1.68,3.23-.06,2.6-1.74-1.59-.74-2.85-1.22-3-2-1.24.71-3.51,2.81-5.24,4.15-2.34.55-1.78-1.75-3.52-2.33-1.23-.2-5.12,1.92-4.6-.27-4,1.92-7.9,1.48-11.82,1.19-2.35-1,1.92-2.06-.43-3-3,1.06.84,2-1.62,3.08-2.31,1-2.47-1.69-4-2.66-1.38.71-2.72-.25-4.1.06.4-.91,0-1.81-2-2.69-.08.51-.66,1.47-1.57,1-1.22,1,1.58.1,2,1.33-1.4,1.24-2.73.14-4.1.06-1.1.91,1.92,1.21,2.54,1,.17.8-.39,1.59-.58,2.39-2,.11-2-1.13-3.09.72-2.21-1.5.55-1.21.57-2.38-2.11-.89-1.9.83-2.61,1.74-2.41.6-4.79-.21-7.18.1-.14-1,1.54-2.06,1.63-3.08C548,38,545.9,35.3,543.16,36.5c-2-2-2.45-3.15-7.08-3.3,1.34.67,3.1.69,3,2-1.57,1-3.09.53-4.63.4-1,.7.71,1.35-1.08,2.05,2-.18,5.72,1.61,6.15-.09.28.79.82,1.58-.58,2.39-1.77.21-1.2-1.89-3.59.39-2.28-.64,1.3-1.37-1-2,.38,2-2.43,2-4.65,1.08-1.29,1.31.65,1.59,2,1.33-.87.67-1.72.33-2.59,1.06-.58-.79-3.59-1.53-2.5-2.35-.91-.17-4.42,2-3.58-.29-1.68-.6-2.63,3.06-5.18,2.11-.52-.56.89-1.15,1.58-1.72-2.56-.17-7.22-2-8.2.11-.75.3-4.37-.24-2-1.32-4.5.34-10.39,2.61-12,6.62-1.2.13-2.38-.22-3.6.39-2-1.1,1.85-2.29-.92-3.38,2.44-1.38,2.44-.47,4.09-.06,2.42-1.16,2.93-2.3,1.12-3.41-.5.34.22.67.49,1-1.57.66-3.12,1.5-4.63.4-1.17-.94,1.59-.14,2.09-1.39-1.33-1.4-2.77,1-4.08-.62-1,3.31-6.59,1.09-10.23-.54-1.69,1.25-3.09,3.61.4,3.73-.81-1.74,1.29-1.17,3.1-.72.52.59-.87.64-1.54.36.83,1.52,6.13.31,8.68.89-8.29,2.51-20.85.92-30.82,2.48-.51-.45.53-.91,1.06-1.37-1.35-.48-2.71-.72-4.12.74-.8-2.16-2.07-.26-4.07-1.3-1.5-.76,3.4-1.63.58-2.38-1.89,2.25-2.94,1-6.68.43-1.57,1.75-3.52,2.92-6.17.77-1.75,1.59-3.43.52-5.18,2.11-5.37-4.6-15.19-.9-24.52-3a1.6,1.6,0,0,1-3.1.73c-2.09.82-1.54,1.61-1.61,2.41a3.14,3.14,0,0,1-2,0c.26-1-.34-2,1.62-3.08-2.94-1.28-.79,2.85-4.12.74-.85,2.43-1.73,1.59-4.66,1.76-1-.78.23-1.59,1.6-2.4-4.93,1.92-12.41.45-16,4.64-2.44.8-2.43-.33-4.08-.62-1.39-1,1.35-2.06-.44-3.06-1.88.93-1.5,1.84-1.09,2.74-2.51-.33-1.87.76-4.14,1.42-1.48-1.78,1.84-4.15,4.22-4.14-1.05-.5-.54-1,0-.68-3.47-1.89-8.34-3.93-13.84-.14-1.85-.88,2.41-1.84.08-2.71-1.84,1.95-6.87-.15-10.26.15-1,.58-.48,1.14-1.59,1.72-.16-.57.68-1.14-.46-1.69-1.88.14-.63.47-2.09,1.39-.42-.44.7-.92,0-1.36-2.18-1.37-4.45-.14-4.14,1.42a1.39,1.39,0,0,0-1.53-.32c-.5-.44.53-.92,1.06-1.37-4.78,0-12.22-2.38-15.37.23-4.62-1.79-3.45.67-6.13-.59-2.67,2.72-4.29,2.3-7.8,3.85,1.18.88,2.38.48,3.57,1-1.57,1.22-3.06-.55-4.62.41-.51-.44.52-.92,1.05-1.37-3.24-.1-6.45-1.44-9.7-1.56-.51-.45.53-.92,1.07-1.38-1.54-.12-3.07-.58-4.63.41-1.7,3.74-11.87-1.25-17,1.26,6,.47,11.95.65,17.91,1.44-2.07.91-4.11.2-6.16.09-.82,1.62,2.66.34,3.56,1l-3.13,2.08c-1-.55-.42-1.12-1.48-1.68-4.31.95-4.15,4.1-9.3,2.85-.43-1.18,3.41-1.49,4.68-2.44-.14-.79-1.37-1.56-.45-2.37-1,.51-3.66,4.74-7.78,3.17-.76-.67-.25-1.36,1.08-2.06-2.11-1.17-4.07,3-7.23,2.14-2.12-.88,1.48-1.84-1-2.7-.54.23-.3.45,0,.68.09.92-2.75.21-2.11,2.07-.9-.27-4.34-.68-3.61,1.07-1.18-.26-2.41.6-3.58-.29-.09-1.24,3.5-2.54,2.66-3.77a38.28,38.28,0,0,0-4.66,1.77c-1.43-.66-.14-1.36-2-2-3.09.52-6.15.07-9.24.13-1-.79,2-.45,2.62-1.74-3.93-1-4.86,3.72-8.74,1.15-1,.33-2.11,2.19-3.12,1.4-1.22,1,1.58.09,2,1.33l-1.56,1c-3-1.25-6.15.15-9.19-1.23-.09-1.74,4.12-2,5.64-.42a7.64,7.64,0,0,1,4.14-1.42c-1.67.14-5.64-2.3-8.22.11-2.06-1,.61-2-1.45-3-2,2.45-8.08,2.36-12.88,2.56-1.16-1.22,1.59-.43,2.08-1.39-2.18.06-1.17-1.12-3-2-2.76,1.05-5.47.17-8.24,1.48-3.74-2-3.72.51-9.3,2.85,2.24-.23,4.47-1.08,6.67-.44,1.08-.47.6-.92,0-1.36a5.71,5.71,0,0,1,4.1-.06c1.19.57-1.62.93-2.07.7.68,1.08,5.69,4.1,8.15,1.92,1.63,2,7.35,1.76,10.74.86,1.19,1,.57,1.81,2.55.3a26.55,26.55,0,0,0,15.85,1.47c.14,2.33,5.6.42,4,2.66.84-.72,2.56-.65,4.66-1.09-.85-.63-1.71-.27-2.54-1,1-.34,2.06-.38,3.09-.72.39.56.37,1.13-.55,1.71,1.33,1.07,2.72.24,4.06,1.3,1-.47.43-.91,1.07-1.38,1.17,1,2.34,1.78,3.58.29.84.5,1.67,1.43,2.54,1,1.41.66-2.66,1.4-.06,2,2.05-2.67,10.9-1.63,12.81.16,1.84.76.63-1.06,2.09-1.39.51-.22,1,0,1.54-.37,1.92.76.58,1.58,2.5,2.35,3.39-2.21,10-.44,14.86.12,1.23-1.3,2.41-.93,3.64-1.75-2.56-1.46-2,1.26-4.63.4,1.26-1.09.9-.79-.44-2.37,3.34-2.26,6.25-1.12,7.16.58-1.4,1.26-2.7-1.52-4.11.06,2.29,0,3.34,1.95,1.46,3,3.25-.06,6.47.87,9.71.88-1,1.89-.5,1.12,2,2a5.76,5.76,0,0,1-5.1-1.28c-.93.69,1.3,1.33-.05,2,1.89-.52,3.75.47,5.63.26,1.28-.93-.65-1.8-2-2.69,2.91-.52,5.78.48,8.74-1.15.41-.91-.62-1.8.08-2.72,3.07-.56,0,1.77,2.49,2.35.53.64-.86.31-1.56,1,3,2.29,9.76.67,13.24,3.2,4.16-2.24,8.22-.83,12.32-.85,1.37,1.72-2.83,1.55-3.17,3.44,3.11,1.3,3.9-2.33,4.6.95a2.43,2.43,0,0,0,.09-3.4,23.69,23.69,0,0,1,10.75.19c1.14-2.64,4.67-1.71,7.22-1.47.5.45-.53.92-1.06,1.38-.87.37-1.7-.54-2.54-1-.69.35-.82.7-.54,1l-1,.69c1.86.83,3.79-1.2,5.61.94-1.22.93-2.39.1-3.59.39-.67,1.84,3,.82,4.07,1.3-3.4,2.92,4,.46,6.62,1.6a2.71,2.71,0,0,1,2.64-3.09c-1.43,1.76,1.3,1.71,1.44,3.71a1.49,1.49,0,0,1,1.55-.36c-.93-1.87,2.52-1.69,3.17-3.44,1.39.24,5.71,2.12,8.7.21,1.83.89.11,1.81-.08,2.73,2.86.82,5.55.9,7.12,1.93l2.09-1.39-2-1.33c-1.94,2-3.76-.25-5.63-.26,2.43-1.5,4.77.61,7.19-.78-.14,4.14,5.56,1.68,9.64,3.59-1.52-.43-3.08.58-4.6-.27-.18,1.71,4,1,5.61.94.48-.92.31-1.82,1.1-2.74,2.79-.56,1.37,1.75,2.5,2.35.71-.72,1.37-.4,2.05,0,.11-2.12,2.54-2.17,5.12-.07-1.52-2.22.78-.76,3.15-2.76,2.9,1.84-3.69,1.71-.09,3.4.92-2.52,2.85-1.87,4.2-3.46,2.49,1.56-3,1.65-2.13,2.74,2.49,0,3,0,4.67-1.76,2.3,1.42-1.72.83-1.08,2.06,4.45,2.33,5.86-.53,10.29-1.51,1.19.77.59,1.57,2.5,2.34,2.27-1.61,4.44-.14,6.69-1.11.64.9-.44,1.81-.08,2.71-.71.66-1.37.28-2.07.71-1.71-.66.11-1.36.05-2-3.09.39-4.06,1.62-7.72,1.13,2.21.52,4.4,1.68,6.65.92,1.72.93-2.79.16-1.07,1.38-2.37-.62-4.78-.25-7.16-.58-.45.46.64.9,0,1.36-2,.75-.59-1.28-2.52-1.66a2.73,2.73,0,0,1-2.57.38c-.27,4.24-5-.89-7.73,1.81-1.84-.87.47-2.07-2-2-1.5,1.38.44,2.71-1.13,4.1,1.34,1,2.74-.27,4.08.61.52-.46-.48-.9-1-1.34,1.74-1.21,3.43-.32,5.13-.07.3,1.23-1.63.61-2.1,2.06-2.06.27-4.09-.26-6.17.77-1.84-.87.47-2.07-2-2-3.37,5-14.5,1.64-21.07,2-.32-.9,2.06-1.84,1.1-2.74,6.14.42,12.25,1.52,18.42,1.09,1-1.23-2.28-1.19-3.07,0-1.55-1.15-3.65-.78-1.48-2.36a45.45,45.45,0,0,1-5.14.75c-.42-.89,1.48-1.83-1-2.7-1.64,2-2.17,1.35-4.64,1.08-1.94-.76.47-1.59-1.47-2.35a17.63,17.63,0,0,0-10.31,2.19c0-.57-1.07-1.12-.47-1.69,1.47-1,.13,1.73,2.05,0-3-1.28-6.15-.05-9.19-1.23L387,66.26c-1-.89-1.06-1.8-3-2.68-2.13,2.34,1.3,2.21,2,3.37-1.92,1.24-3.7-2.28-5.63-.26-2.38-1.33,2.1-2.75-.91-4.06-.5.34.2.68.48,1-4,1.25-7.86.23-11.78-.17-2.11,1.5,1.18,2.94,3,2.68-1.9.66-3.88,3.94-5.71,2.45-.9-1.27,2.13-.44,1.58-1.72-1-1.5-2.06.87-3.06-.63-1.18,1.33.16,1.77-2.63,2.41-1.19-.66-1.17-1.35.06-2-2.8-1.33-2.57,2.77-5.17,1.43-.76-1,2.84-2.08.6-3.06-2,.82-1.39,1.61-2.63,2.42a3.11,3.11,0,0,1-2.05,0c-.09-1.1,2.77-1.16,2.12-2.75-2.6.19-2-.89-4.55-2.31-4.78-1.17-9.88.66-13.34.87,2.95-2.51-8.22-1.27-11.74-2.21.25-1.81,4.76.19,6.72-1.8-4.15-1.6-7.85,2-10.77-.18-.53.46.48.9,1,1.34-1.41,1.66-2.74.17-4.14,1.42-3.79-3.29-8.91-.05-11.21-2.56-4.72,1.64-7.5-.18-11.33,2.2,1.87.08.59.45,2,1.33-5.69,2.29-7.25-1.5-7.57-4.3-1.31,1.38-.27,2.72-1.14,4.1-2.21-.37-4.44-.14-6.63-.93-.76-.89,2.69-.83,3.63-1.75.52.78-7.75-1.1-9.21-.54-1.2-.3-1.15-2.14,0-1.36,0-1.63-2.05,0-3.08,0-.53.46.48.9,1,1.35-4.2.19-10.63-3.79-16.34-1.8l-2.52-1.66c-1,.69-2-.46-3.09.73-4.35-3.54-8.89.13-13.24-3.21-4.66,1.83-9.24.57-13.8-1.5,2.83-1.13,3-1.88,5.2-2.79-5.11.18-10.34,2.62-12.82.52.09,2.88-3.6,4.29-2.25,7.51-2.55-.33-5.09-1.19-7.64-1.59.19,3,9.37,1,9.1,4.62-1,.81-2-1-3-1.31-.43,2.14-4.18.2-6.2,2.13.35-1.13.63-2.27-2-3.37.18,1.65-1.44,2-3.67,3.11-1.57-1.28-4.48-2.94-4.59-1-1.84-.88-.84-2.06-3-2-1-1.27.21-.89,1.59-1.72-2.22-.25-4.44-.55-6.68.44-1.74-1.11,1.92-2.29.09-3.4-.92.54-1.68,3.29-3.63,1.75-.32.8-1.62,1.6.45,2.37-2.91.81-2.45.5-3.65,2.43-1.06,1.18-2-1.82-3.06-.64-2.37,1.33,1.27,1.33,2,2-1.37.31-2.71-.65-4.1.06-1-.88,2.17-1.84.07-2.71-.65,1.48-3.64.7-2.56-.3-3.11,2.7-8.36,1.52-12.79-.84-.17.79-1.43,1.6-1.6,2.4,2.17.66,1.19.72,3,2,1.35-.58.27-1.14-.46-1.69,4.28-.58,8.5,1.39,12.76,2.19-3.63,1.27-7.15-1.41-10.76-.18a24.21,24.21,0,0,1,5.59,1.61c-2.07.83-4.08-.92-6.19,1.45-1-.9.87-1.82-1-2.7-.87.66-1.72.32-2.59,1.05-1.32-.54-.21-1.13.55-1.7-1-.66-2.06.52-3-.64-.55,2-3.88.83-4.18,2.78-2.76-1.09.11-2.26-2-3.37-2.1,1.09-6.8-.11-7.14-1.25-3.2,1.3-3.14-.85-6.15.09-1.17-1.22,1.6-.42,2.09-1.39-2.87-1.41-5.81.13-8.69-.89a4.05,4.05,0,0,0-1.62,3.08c-1.71-.31-5,.38-5.19,2.11-2.27-.65,1.3-1.37-1-2-1.53-.39-3.1.9-4.61-.28-2,.91-.67,1.7-2.6,1.74-1.66-1.11,2.43-2.3,2.15-3.43,1.22-1,2.33,2.19,3.57.29-.46-1.57-4.51-1.31-6.66-.24-1.85-.66-.57-1.35-2-2-2.6,1.23-7.9,2.68-8.74,1.14-.89-.34-1,.58-.54,1-1.89.27-3.78.75-5.61-.94-1.24,1.3-2.41.45-3.64,1.75,2.24-1.16,4.38,2.27,6.66.24,1.48,1.67-.69,2.38,3,3.36-3,2.34-3.83-.12-4.61-.28-2.06,1.7,2,1.19,2,2.69,1.05-1.1,2.08-1.12,3.07,0,1.37-1.31,2.56-.46,2.61-1.74-1.69-.73-3.12.19-2.52-1.66,1.21-.63,2.35,1.39,3.57.29.88,1.3-1.43,1.79,1.48,2.36-1-2.31,2.28,0,4.09-.06.31.39-.25,2.41-1.58,1.71,1.43-.07,4.69,2.12,7.14,1.26,1.87,2.89,5.08.92,6.57,3.64,2.64-.65,2.34-2.11,5.17-2.11.53.56-.89,1.14-1.57,1.72,2.16,2.13,4.42.78,6.62,1.6.8-.91.31-1.25-1-1.35,1.46-1.71,3.64-.05,3.63-1.75.16.31.64,2.14,2,1.33,1,1.27-.21.89-1.58,1.72,2.7,1.18,5.48-.51,8.15,1.92,1-3.6,3.78,1.59,6.19-1.45-.56,2.13,2.16.81,2.5,2.34-1.88.28-3.77.75-5.61-.93-1.73,2.87-6.53.64-9.72-.89-.21,1-.42,2-2.64,3.1,5-3.32,14.62,4.58,19.51-1.64,3.24.29,6.5-.26,9.71.88.8-.91.32-1.26-1-1.34l3.13-2.09a4.21,4.21,0,0,1,3.06.64c-1.57,1.12-3.08-.05-4.66,1.77,1.51.88,3.06.75,4.57,1.63l2.09-1.39a7.31,7.31,0,0,1,2.55.3c1,.77-.23,1.59-1.6,2.4,3.82.55,2.1-3.33,6.21-2.13.42-.58.43-1.14-.47-1.7a4.43,4.43,0,0,1,3.1-.72c-2.08,3,5.86,3.69,8.58,5-3,.88-10.53-1.06-10.29,1.51-3.08.09-6.13-1-9.21-.55-.35,1.94,3.71.52,5.09,1.29-2.44,1-2.44.2-4.16,2.1-1.2-2.94-3-.29-4-3.34-2.59,1.28-1.43,2.51-.61,3.74-2,.64-2-1.5-3-2-1.22.82-2.4.45-3.63,1.75-1.86-.65-.57-1.35-2-2-2.31,1.71-1.33.09-3.58-.29-2.41,1.09-4.79.26-7.21,1.46-2.08-.76.31-1.59-.44-2.37,2.51-.61,7.1.94,6.71-1.8-1.36-.19-2.77,1.12-4.14,1.43a2,2,0,0,0-1-1.35c-2.26,1.53-2.74,1.65-4.62.41-2.95,1.29.29,2.49-2.66,3.78-.52.22-1,0-1.56.36-1.83-.88-.11-1.81.07-2.72-1.32-1.61-2.74-.09-4.07-1.3-1.07.47-.58.91,0,1.36-3.09.87-6.09-2.28-9.25.81-5.55-1.08-9.81.47-14.3-1.83-1.76,1.74-3.43.48-5.15.76-.64,1.66.08,2-1.62,3.08,2.38,1.46,2.41,1,4,2.66,1.16-1.68.21-1.23,2.12-2.75,2.24-.5,4.42.68,6.69-1.12,1.29,1.23-2.25,2.52-2.66,3.78,1.22.86,5.08-.38,4.57,1.63,3.4.48,6.89-2,10.23.53-2.07,1.08-4.11.48-6.19,1.45,1.36.28,2.74-.12,4.07,1.31.59-1.44,1.05-1.45,2,0,4-2.49,7.83,1.12,11.78.16,2,.65-.27,1.37-1.07,2.06,1.32,1.21,2.73-.06,4.08.62-.87-1.21-.88-2.45-3.49-3.69a2.51,2.51,0,0,1,.55-1.71,17.75,17.75,0,0,1,3.58.29c.57.67-1.2,1.37,1,2,1.3-.58,1-1.15,1.59-1.71.68-.29,1.35.42,2,0,1.22,1.44-1.11.81-1.09,2.06-1.55.91-3-1.15-4.62.4,15.85,1.25,31.74.91,47.58,3,1.1-2.82,6.2-1.44,7.16.58,1.09-1.49-.52-2.94.63-4.42,3-.74,2.65,2,5.62.93.5.45-.53.91-1.06,1.38,2.56.36,5.17-1.27,7.7-.45-3.14,3.73,6.07,1.94,10.13,4.61,2.08-.71-.2-1.36-1-2,4.14.08,2.3.48,6.11,1.27.64-.57-1.33-1.11-.46-1.69a4.17,4.17,0,0,1,3.06.64c.18-.68.73-1.37,2.1-2.07,2.29-1.11,1.54,1.76,4.11-.06.76.67.25,1.35-1.08,2.05,6.13.92,5.14,2,12.79.83.39.56.37,1.13-.55,1.71,4.83-2.06,9.57-.2,14.38-1.57.22.45.45.9,0,1.37,1.88,0,3.79-1.09,5.71-2.46q2.43,1-.05,2c6.17-.9,12.22,2.8,18.48-1,1.93.76-.47,1.59,1.46,2.36-1,.68-2-.47-3.09.72,4.82-.62,10.88-2.74,16.94-1.26.81-1.5-4-1-.94-2.7,2.66,1.37,4.82,2.5,7.11,1.94,1.58-2.19-2.14-.13-3.56-1,1.92-1.53,3.78-.69,5.68-1.1a6.81,6.81,0,0,1-1.13,3.41c5.19-.58,9-3.16,14.91-1.92.42.45-.69.92,0,1.36.83.63,1.7.28,2.53,1,1.91-1.33.93-1.37,3.14-2.09.15.68.67,1.35,2,2,2.58-.75,5.14-.38,7.7-.45,1.17.85-1.62,1.22-2.07.71,1.92,2.05,6.29-.46,7.76-2.49,2.64.87.26,1.81-1.1,2.74,3.59-.06,7.25-2.93,10.81-1.85,1.18.5-1.64,2.06-2.07.71.59,1.45,2.55,2,5.06,2-.79.12-3.09.51-1.06,1.38-1,.4-2-.75-3.09.72,1.66,1.23,3.41-.08,5.1.61-.64-.9.78-2.64,2.61-1.74.56-.66-.85-.29-1.51-1,2.07-.66,4.12-.85,6.23-2.81,2.42.88-1.17,1.83.94,2.71,1.53-1.12,4.15-1.17,4.18-2.78,4.35.35,9.34,1.22,12.29.5.06-.79-.5-1.58,1.6-2.4,1.62,1.93-1.33,3,3,3.35-1.4,1.4-2.75.45-4.12.74.16,1.75,4.77-.35,6.65.25.2-.57-.62-1.12.56-1.71,1.63.69,2.77.17,4,2,2-.83.67-1.6,2.63-2.42,1.53-.24,2.93,3,5.62.26,1.43.65.14,1.35,2,2-1.22.92-2.41.58-3.6.39,7.6,3.26,19.82-.2,29.19.59.08.91-.84,1.83-2.12,2.75,1.86.4,3.77-.73,5.63.26,1.39-.81.86-1.6.57-2.38,4.52-.13,12.83,3,17.47-1.61,1.49,1.52-1.79,1.23-1.6,2.4a43.9,43.9,0,0,1,6.65.25c.51-.57-.07-1.13.56-1.71,3.37-.71,9,3.1,10.75.18,1.19.78.58,1.58,2.49,2.34,1.55-.43,3.13-2.06,4.63-.4,2.43-3.6,8.78.67,12.86-1.88-.42.69,1.87,1.33,1,2,2.59-.79,5.18-2.08,7.69.22a5.58,5.58,0,0,1,3.11-1.4,2,2,0,0,0,1,1.34c.49-1.09,3.28-1.13,2.06,0,1.62-1,4.31-.82,7.17-.1-.62-1.45.75-1.6,2.62-1.73.51.44-.53.91-1.06,1.37,2.55.49,5.12-.26,7.68.23-2,1.68-2.66-.29-3.64,1.75,1.53.31,3.05.82,4.61.27.51.56-.89,1.15-1.59,1.72-1.88,0-3.7-2.18-5.63-.25,2.27-.48,1.25,2.28,3.54,1.64.61,1.52-1.35,1.7-3.13,2.09-.89-.79.39-1.59.58-2.39-2-.89-2.69.84-3.63,1.75-1.71,0-3.44.63-5.11-.6,3.79.27,2.87-2.21,5.69-1.78,1-1.26-3.26-.54.05-2,2-1.13-.48,2.12,1.5,1,2.71-1.49.35-.81-1-2a3.16,3.16,0,0,1,2.06,0c-2.2-1.22-8.9.87-12.81-.16,1,1.95-2,.43-2.11,2.07a19.5,19.5,0,0,0,7.22-1.46c1.14,4.51-7.24,3.23-9.86,4.56-3.76-1.64-.12-3.39-2.43-5.06-.21,2.24-3.39-.56-5.15,1.44,1.6-.37,6.1.34,4.54,2.31-2.82-2.19-2.7,1.23-6.66-.24-2.06-1,.61-2.05-1.45-3l-2.62,1.74c.76.45,1.52.88,1,1.34-4.84,1.76-9.6,1.18-14.41,2.24,1.49,1.59,3.07.34,4.59,1-2.91,1.2-8.06,2.18-9.2-.55a4.65,4.65,0,0,0,4.13-1.41c.61-1.3-2.46-.38-1.49-1.68-3.23.4-6,3.17-8.2.12-1.24,1.41-2.41.58-3.6.39,0,.57-1.13,1.15-.56,1.71-3.73-1.11-10.28,1.42-12.27-1.18-2.22.19-4.45.81-6.69,1.11a2.57,2.57,0,0,1,.56-1.7c-1.92-.68-1.38,1.31-2.6,1.74-2-1.1-.81-2.26.09-3.4-2.32-.56-5.24.23-6.09-1.95-.71,1.37,1.23,2.7-1.12,4.1,3.19,1,1.25-3,5.15-1.44.64,1.33-.17,2.16-2.12,2.75-4,.7-7.79-2.55-11.74-1.52-1.43-1.86,1.71-1.15,3.13-2.09-1.68-1-3.42.19-5.15.75a2,2,0,0,0,1,1.34c-1.36.41-1.87-.75-2.07.71-2.86-1.34-5.87,2.28-8.69-.9-.36,1.55-4.68,1.85-5.13.08-1.74,3-6.58,2.89-9.78,1.84-1,.46-.43.91-1.07,1.37-2.64-1.1-5.65,0-5.57-2.3l-3.66,2.43c-3.47-1.09,1.1-2.29-.92-3.39-2.26,1.44-4.47,1.18-6.68.44-.34,1.13-2.5,2.3-3.17,3.44-1.39-1.34,2.53-2.75.11-4.08-.09,3.32-6.67,3.24-9.79,1.84-2.64.7-2.36,2.75-5.18,2.11.14-1.21,2.11-2.64-1-2-.51-1,.92-2,2.64-3.09-.33-.35-.68-.18-1,0l-1-.67c-1.65.93-.47,1.81-2.13,2.75-2.65,1-2.24-1.69-5.05-2.65-1.91,1.36-3.74-.53-5.65.42,2,1.89,4.06,1.38,6.14.59,0,.79,1.18,1.57,2.49,2.35-2.21-.32-2,1.21-4.6-.28-2.31.71,1.23,1.34-1.08,2.05-2.19-1.63-7-1.14-10.72-1.54-.64.89,3,1,4.09.62.64,2.64-4.4,2.37-6.71,1.8-1.49-1.61,3.59-.17,2.09-1.39-2.56-1.71-2.05,1.24-4.63.41,3.07-3.31-7.86.6-11.21-2.55-1.21,1.42-5.07,2.27-7.79,3.85.33-3-8-.23-9.24.81-.77-.44-1.52-.88-1-1.35-.85,1.06-3-.1-5.16,1.44-1.59-2.46-3.56,0-7.2.78-.73-.78.58-1.59-1.47-2.35-6.42,1.9-9.82.36-16.44,1.59-.74-.87.58-1.69-1.5-1.68-.16,2.74-3.57,1.19-5.1-.6,1,2.05-2.35,3.59-5.21,2.79-.85-1.68,3.23-.05,2.61-1.74-.84-.64-1.71-.28-2.54-1-.78.89.49,1.68-1.58,1.72-.61-.56,1.38-1.15.55-1.71-3.24-.84-4.31.19-4.14,1.42-2.56.63.06-2.15-2.52-1.67.31,1.66-1.94,2.26-4.17,2.78-.87-2-1.59,0-3.54-1.64,0,1.47-2.63,1.37-4.12.73-.17-.81,1.08-.43.56-1.7-.85,2.14-8.81-.08-7.77,3.17-1.85-.93-3.81,2.13-5.66,1.1-1.44-1.47,1.71-1.07,3.15-2.76-1.87-.52-3.76.25-5.63-.26-.93,4.3-7.87,2.37-9.82,3.2.19-1.29,2.69-1.84,3.66-2.43,1,.44.54.9,0,1.35,2.24.74,1.61-1,4.14-1.42-3.41-.38-4.25.09-7.11-2.61-2.11.82.22,1.58-.57,2.38-3-2.43-15,.39-19.47-.4-.67.24-4.27,1.4-2.62,2.41-2.69,1.55-5-1.35-5.16,1.44-1.51-.88.21-1.81.07-2.72.87-.37,1.69.55,2.54,1,1.64-1.37-1.18-2.14,2.12-2.75-2.63,0-3,1-6.2,2.13a2,2,0,0,0-1-1.34c-1.72,1.19,1.07.82.45,2.37-1.55.66-3.07-.55-4.64,1.09,7.82,1.54,15.68,1.56,23.53,1.69,2.26.65-1.31,1.38,1,2,1.94,0,1.37-.83,2.6-1.73,2,1.33-1.31,2.73-3.18,4.12-4.36,0-9.21-3-14.84-.8-1.54.09-3-1.27-4.59-1,1.42,1.5,1,1.29-2.07.71-1.79.71,0,1.36-1.08,2.06-3.81-2.54-4.74-.54-8.18-.56-1.43-.66-.15-1.35-2-2,.19,1.48-1.44,2.5-3.63,1.75-1.41-.66,2.65-1.4.05-2-.71.72-1.38.4-2,0-.08.57-.64,1.13-1.59,1.71-4.41-.72-6.58-1-10.18-2.57-.93,2.91-3.38-.65-5.66,1.1-1-1.27,2-.45,2.6-1.74-1.89.12-3.77.46-5.63-.26-1,.32-2.11,2.19-3.12,1.4.62,1.77,0,1.59-2.64,3.1,3.93-.45,5.53,1.68,8.71.21,1.87,1.51-1.28,1.23.45,2.37,2.11-1,2.26-2.07,1.61-3.08,1.22-.52,2.4-.16,3.62-1.07.09,2.23,3.38,1.07,5.11.6,1.29,1.45-2.21,1.32-2.64,3.1,2,.25,2.05-.34,3.11-1.4a7.66,7.66,0,0,0,5.07,2c0-.9,1.76-1.83,3.15-2.76.63,1.12-.17,2.27,2,3.37,1.39-1,2.73.07,4.11-.06-.58.81.66,1.58.45,2.37,5.49-.73,10.94-.2,16.38.45,3.14-2.22,6.14.75,9.25-.82,5.33,3.45,13.2-2.29,16.85,2.14,1.06-1.27,2.07-.43,3.11-1.41,1.34,1.28,2.69,1.31,4,2-2.1.86-3.78-.5-4.66,1.77.92-1.84-1.24-.84-3-1.31-1.3,1.46.67,1,2,1.32-2.44,1.67-4.8.77-7.19.79-.92-.66,2.35-1.15,3.09-.72-.83-1.75-6.14.18-8.7-.22,1.16,1.28,2.4-.31,3.56,1-4.72-.36-6.52,1.36-10.82,1.85-1.5-.77,3.4-1.63.59-2.39l-2.09,1.39c-4.46-1.32-9.77-.06-12.85,1.2,3-1.95-1.91-1.31-4.57-1.63-.32.88-1.62,1.71.47,1.69-3.6,2.63-4.08-1.3-7.19.78-1.45-1-.69-2-.44-3.05-1.41-.49-3.69,1.83-3.66,2.43-2.13.86-6.1-2.12-6.66.44-.92,0-4.34-.88-3.55-1.65-2,1.65-7.67,2.14-12.33.86,2.7-.81,2.41-.5,4.68-2.44-1.68-.75-3.38-1.22-5.07-2-1.51.42,1.52,2.39-.56,1.71-1,1.79,2.33-.08,3.08,0,.4,2.22-5.64,3.83-8.24,1.48-3.41-.09-6.95,4.4-10.31,2.19l-2.08,1.38c-1.71-.65.11-1.36.05-2-2-.53-4.15,2.18-6.17.77-1-1.27,2-.92,2.61-1.74-5.78,1-11.18,2.45-14.86-.13-1.71.12-3.41-.13-5.16,1.44,1.18.55,1.47,1.11.47,1.69-2-1.64-7.62.68-11.24-1.2,1.21-.9,2.43-1.74,3.61-1.07-1-1.15-6.45-1.1-9.19-1.23-2.4,1.73,1.77,0,2.53,1.66-1.75,1.16-3.43.11-5.16,1.44.39.56.36,1.13-.56,1.7,1.33.94,1.88.09,2,1.33a4.41,4.41,0,0,0-2.07.71c-2.56-2.54-3.32-1.84-6.58-3,1.75-1.7,3.39.94,5.14-.76-1.16-1.26-2.38-.38-3.54-1.64,1,1.35-3.71,2.51-5.71,2.45-.51-.44.53-.91,1.06-1.37-1.32-1.62-2.72-.08-4.06-1.3-.89.69,1.38,1.34,1,2-3.61,1.26-7.15-.42-10.77.49-.05,1.8,2.61-.32,4.08.63.31.33,0,.68.49,1-2.6-.63-3.32.7-6.19,1.45.1,1.92,2.61,1.27,3.6-.4,2.35.87-2.31,2.1,1,2C65.2,142.27,61.64,142.68,64.15,144.29ZM259,158.13c1.92-1.44,3.76,0,5.63.25C262.74,159.5,260.88,158.91,259,158.13Zm156.51,10c-1.61,1.56-5.14.34-2.63,2.42-2.93,1-5.81.54-8.7-.22,1.45-1.43,1.75-.52,3.15-2.76.84.43,1.67,1.35,2.53,1,.69-.47-.4-.9,0-1.36C411.78,167.73,413.7,165.9,415.53,168.09Zm1164.6-65.48c2-.7,1.79-2.14,3.77-.34C1583.73,103.25,1581.29,103.92,1580.13,102.6Zm4-36.55c3.35-.25,3.78-.53,6.89-2.19.86,1.66,2.24,1.06,3.65.33,1.36,1.72,1.68,1.87,2.32,3.88,2.94-.84,1.37-2.51.91-4,4.06,1.46,3.05,4.6.24,5.91-3-3.07-7.64.8-11-1-1.53-1.76,2.14-.42,1.48-1.8C1586.9,67.73,1583.92,67.35,1584.15,66.06Zm-321.43-25.6c-2.08,1-3.75-.7-5.74-.27A5.57,5.57,0,0,1,1262.72,40.46ZM1098.78,35c-.81-1.22-4.35-1.07-3.41-2.56C1096.69,34,1100.55,33,1098.78,35ZM974.22,31.67c1.38.31,2.86-.91,4.18.73C977.24,33.43,973.52,33.07,974.22,31.67ZM257.49,43c-2.23.09-4.45.22-6.64-.92C252.75,42.17,257.34,41.32,257.49,43Zm43,21.46c-.19,1.52-9.28,1.29-7.67-.91C295.34,65.22,298,62.64,300.48,64.46ZM120.12,62.3c.55-.57.28-1.14,1.59-1.72.83.71,1.7.35,2.54,1C122.85,62.63,121.46,63.5,120.12,62.3Zm238,48.53a69,69,0,0,1-10.75-.19A17,17,0,0,1,358.17,110.84Zm-98.95,1.77c-1.56-.18-5.78.38-5.61-.94C255.17,111.6,259.39,110.9,259.22,112.6ZM208.52,111c0,.5-1.79,2.93-3.11,1.41C204.5,111.48,207.79,110.14,208.52,111ZM81.74,138.6c-1.07-.42-.58.52-1.57,1-1.48-2.15-3.11,1.2-4.58-1C77.36,136.83,81.73,137.42,81.74,138.6Zm72.05,7.45c-1.37.12-2.77,1.26-4.11.06A3,3,0,0,1,153.79,146.06Zm70.44,9.85c-.18,1.33-3.44,1.38-5.12.08C220.85,154.58,222.55,155.36,224.23,155.91Zm14.87.13c-1.76.88-6.13.37-6.12-1.27C235,155.63,237.09,154.23,239.1,156ZM134.84,87.22c3.41.17,6.86-.94,10.25-.15C141.85,88.89,136.34,88.46,134.84,87.22Zm148.74,91.26c-.3,1.53-3.83,1.56-5.65.43C279.85,177.09,281.72,177.58,283.58,178.48Zm-68-44.87c-1.7,0-3.45,1.12-5.13.07C211.91,132.68,215.95,131.88,215.6,133.61ZM135,81.11c-.73-1-4,.54-3-1.31C133.35,80.11,136.53,79.09,135,81.11ZM138.62,80c.86,1.93,1.59.4,3.56,1-.85.58,1.11,1.12.47,1.69-2.5-.15-1.8-1.42-4.09.06l-1.52-1C137.58,81.18,137.31,80.62,138.62,80Zm9.62,4.28c-1.71.21-3.45,1.49-5.12.07C144.87,82.69,146.57,83.12,148.24,84.32Zm64.73,33a4.39,4.39,0,0,1,3.09-.73c-2.32,1.15-.85,4.37-4.19,3.46C211,118.5,214.78,118.42,213,117.35Zm-48.8-34.28-2.09,1.39-1.5-1C161.8,82.06,163,82.88,164.16,83.06ZM133.44,62.79c-.78-2.35-2.09.21-4.08-.62C129.07,60,136.82,60.79,133.44,62.79Zm90.83,53.72c3.3,1.4,7.36-1.92,9.18,1.23.32-2.05,3.85-2.05,5.67-1.1-4.94.53-4.11,2.92-8.83,4.54-1.93-2.73-1.85.34-3-2-2.6.56-7.9,2.14-8.73.47.45.22,3.24-.14,2.07-.71a7.11,7.11,0,0,1-5.12-.61c1.4-1.24,2.74-.4,4.09.62C221.21,117.91,224.15,118.36,224.26,116.5Zm55.29,40c-.1,1.71-3,1.31-4.64,1.09C275,156.16,278,155.74,279.55,156.47Zm-66.45-44.55,2,1.33c-1,.88-2.08,1.23-3.09.72C214.34,113.25,210.8,112.62,213.11,111.92ZM151.3,65.59c-1.59,1.56-3-1.52-4.62.41-1.62-.92.21-2.42-2.5-2.34C147.77,61.17,148.26,65.34,151.3,65.59ZM181,84.53c-1.56,1.07-3.14,2.48-4.64,1.08C177.94,85.47,179.54,83.28,181,84.53ZM160.87,71.91c-1.79-1.9,3.4-4.4,5.73-3.15,0,1.3-1.48,2.23-2.63,2.42C163.93,69.43,161.94,70.57,160.87,71.91Zm95,49.57c0-1.75-2-.6-3.09.72-1.35-.09-1.88-.43-2-1.32-3.63,1.71-7.15-.67-10.79,1.17-1.63-.8.22-3-2.54-1-1.75-1-1.77-3.7,1.1-2.73-.58.46-1.08.92,0,1.36.46-3.86,6.43-2.77,9.85-3.88l2.51,1.66c2.05-.2,4.15-2.23,6.17-.77-1,2.16-5.71,2.63-8.26,2.16.5.47-.26.59-1,.69,1.7.08,3.38,1.5,5.09,1.28,2.62-2,5.22-3.49,7.74-1.81C256.44,119.06,257.5,120.57,255.9,121.48Zm-71.25-38c.94-.69-1.3-1.35.06-2,1,1.5,2.08-.87,3.06.64-1.58,1.16-1.16,2.28-3.16,3.44l-1.52-1Zm150.62,96.67c.74,1-2.75,2.47-3.61,1.07C332.87,180.68,334.12,178.65,335.28,180.12Zm-24-22.08c-1.25,2.34-6.69-.6-4.6-.27C308.2,158.09,309.78,156.76,311.28,158ZM179.35,71l-2.08,1.39c-.52-.45-1.52-.88-1-1.34C177.3,71.47,177.43,69.37,179.35,71Zm19.28,7.2c-1,.58-.71,1.15.47,1.69l-2.6,1.73a31.51,31.51,0,0,1-4.57-1.63C194.15,79.71,196.4,78.65,198.63,78.15Zm-18.24-7.89c1-1,.63-2,.59-3.06,1,.66,2.07-.52,3.06.64-4.18,2.47,3.68,1.11,2.48,3-2-1-6.83,1.34-7.14-1.25Zm27.34,12.51c-.79-2.43-3.4-.06-5.62-.94C203.51,78.75,209.25,80.13,207.74,82.77Zm4.08.63c1.87.28.55,2.14,2,1.33.91-.81-.35-1.59.57-2.39l2,1.33c-.78.58-1.88,1.16-.57,1.71-1.21.9-2.43,1.74-3.61,1.07.58-.46,1.09-.92,0-1.36-1.89.71-.65,1.37-2.11,2.07C207.85,85.95,211.29,84.65,211.82,83.4ZM225.94,92a5.36,5.36,0,0,1-6.66-.24C221.53,90.72,223.74,91.1,225.94,92ZM188.1,69.81c2.58-.86,5.09,1.23,7.68.23-2.17,1.5-3.6,1.18-6.7,1.12C189.6,70.69,188.85,70.26,188.1,69.81Zm80.73,47.75-2.1,1.39q-2-2.12-4.1.06l-1.51-1C263.71,116.77,266.26,117.45,268.82,117.56Zm-69.52-45.2c-1.52-.72-3.08,0-4.6-.95C196,70.17,199.8,70.85,199.31,72.36Zm137.55,87.35c-2.76,1-5.45-.51-8.2.12C329.64,157.59,334.31,159,336.85,159.71ZM188.28,63c-.31-.79,1-1.6,1.6-2.4a9.69,9.69,0,0,1,4.11-.06c.54,1-.29,2-.59,3.07,2.45-2.47,4.83-1.75,7.23-2.14,2.13,2.35,4.15,1.94,7.61,2.95-1.58,1.8-7.07.51-10.26.15.9.55.89,1.12.47,1.69-3.07.05-3.94-.52-2.53-1.66-2.37.43-9.72,1.76-11.74-1.53C186.66,64,186,62.73,188.28,63ZM215,78.6c-.83,1.73-1.76,2.69-4.66,1.77C213.8,80.37,211.59,78.37,215,78.6ZM195.34,67c1.19.48,2.39.08,3.57,1C197.43,69.2,193.78,68.52,195.34,67ZM276,117.46a2.75,2.75,0,0,0,2.58-.37l2.51,1.65c3.49-1.68,4.33-.25,8.24-1.47-1,.7.71,1.35-1.08,2.05-2-1.28-4.09-.51-6.15.09.78,1.12,1,2.25-1.12,3.42-1.52-.47-3.05-.57-4.57-1.63,1.57-1.16,3.08-.28,4.66-1.77C280.23,118.06,276.31,118.86,276,117.46Zm1.49,1.68c-1.74,1.06-3.43.77-5.1-.61C274.11,117.7,275.78,118.8,277.48,119.14ZM208.6,69.52c2.27.65-1.3,1.38,1,2a3.71,3.71,0,0,1-4.1.06C205.45,70.7,207.25,69.5,208.6,69.52Zm150,99.06c-1.39.85-2.78,1.72-4.11.74C355.92,168.06,357.29,168.31,358.64,168.58ZM205.6,66.84c1.07.55.53,1.12,1.49,1.68-1.21,1-2.4.68-3.57-.29Zm44.95,24.83c.92.55,1.45,1.11,1.5,1.67-2.24.4-4.48,1.32-6.66-.24C247.14,91.52,248.79,93.37,250.55,91.67Zm-36.31-21.9c2.7,1.26,5.48-.63,8.19.57-2.73-.26-5.53,2.28-8.22.8C214.88,70.67,213.79,70.23,214.24,69.77Zm12.1,7.3,2.09-1.39c.6.79,1.82,1.56,1.47,2.36C228.74,76.76,227.5,78.35,226.34,77.08Zm-14.57-11c.69-.92-3.32-1.77-1-2.71,2.56-.07,0,1.44,2.5,2.35l-2.61,1.73c-.58-.8-3.62-.36-2.51-1.66C209.4,65.4,210.57,66.22,211.77,66.08Zm83.14,52.8c-2.2-.73-2,1.44-4.63.41C291.57,117.87,295.43,117,294.91,118.88Zm-54.76-41c-1.88.24-3.78.89-5.64.42C236.43,76.65,238.28,77.6,240.15,77.89ZM380.64,170c-1.21.52-2.42,1.37-3.59.39C377,169,379.27,168.48,380.64,170ZM255.36,84.47c-1.87-.43-3.76.27-5.62-.94C251.35,82.2,255.51,83.34,255.36,84.47Zm50.84,34.25c2.39-.29,4.77.29,7.15.58C311.16,120.77,305,121.3,306.2,118.72ZM232,57.29c-2.09,1.28.22.39,1,1.34-1.23,1.41-2.38-.62-3.6.39,1.66,1.85,3.39,1.07,5.08,2,.42.6,2.28,2.85-.57,2.39,1.09-1.3-2-.39-2.53-1.66-2.1,2.07-4.09-.27-6.17.76-1.49-1.63-2.52-2-5.07-2-.85.58,1.1,1.12.47,1.69-4.51-1.79-1.89-3.25.16-6.11,1.14.55.29,1.12.47,1.69.87-.57,1.69.72,2.55.3-.92-.55-1.45-1.11-1.49-1.68,1.89-1.11,3.23.05,2.6-1.73,1.21,0,2.41-.39,3.57,1-.7.74-2.09.4-1.57,1A19.85,19.85,0,0,1,232,57.29Zm15.07,11.33c0-1.23,1.75-.87,3.12-1.4.86,2,3.8.54,6.11,1.27-2.39,2.06,2.22,0,3,2-2.25.78-4.42-.7-6.66-.25-4,2-3,5.94-7.31,4.86C248.34,73.84,251.92,69.7,247.06,68.62Zm151.06,99c.41.78-2.67,1.62-.58,2.39,2.8-1.06,1.47-2.06,2.64-3.1.83.7,1.71.34,2.54,1-1.61,2.59-3.66,3.21-5.27,5.51-3.64-2.57-4.3-2.33-8.12-3.28A15.57,15.57,0,0,1,398.12,167.67Zm-79.63-49.12c-.85,1.4-2.58,1.8-4.64,1.08A19.36,19.36,0,0,1,318.49,118.54ZM220.3,53.73c-.93.69,1.3,1.34-.05,2C217.8,56.22,217.88,53.21,220.3,53.73Zm36.38,19.17-4.17,2.78c-.67-.41-1.36,0-2-.65C250,73.53,254.3,72,256.68,72.89Zm65.89,46.26c1.33.79,2.58.38,1.49,1.68-1-.66-2.06.53-3.06-.64Zm-34.63-27c2.75,1.55-2.06,2.65-3.64,1.75C285.54,92.6,286.71,93.45,287.95,92.15ZM236,60c1,0,3.07,1.39,1.47,2.35C236.18,61.53,235,60.76,236,60Zm89.68,57.13c-.29.23-.54.46,0,.68a2.79,2.79,0,0,1,2.58-.38,5.4,5.4,0,0,1-5.14.75C324,117.67,324.87,116.74,325.71,117.08Zm-1.36-6.43c-1.68-1.16-3.45,1.27-5.13.07C320.66,109.54,324.69,108.9,324.35,110.65ZM219.66,39.46c-1,1.49,2.09.62,1.55-.36,1.34.77.77,1.58.44,2.37-2.3-.32-1.83.62-5.12.07A4.19,4.19,0,0,1,219.66,39.46ZM432.92,169.2c-1.4,1.24-2.74.14-4.1.06A2.75,2.75,0,0,1,432.92,169.2ZM319.71,92.37c-1.22,1-2.41.68-3.58-.29C317.36,91.06,318.55,91.41,319.71,92.37Zm44.83,28.9c2.34,1-.57,2.94-2.1,1.39C363.92,121.74,362.66,121.41,364.55,121.27ZM328.39,93.94c2.27-1.46,7.18-1,7.66.91-2.16-1.89-4.44.36-6.67.43C330.27,94.32,328,95.19,328.39,93.94ZM459,170.53c-2.24.47-4.47,1-6.65-.24C454.5,169.37,458.55,168.67,459,170.53ZM265.14,44.59c-1.06-.51-4.7-.61-4-2C262.18,42,265.79,43.38,265.14,44.59ZM307.7,63c1.66,1.69,3.39.9,5.07,2-1.91,1.27-3.74-.63-5.68,1.78-1-.94-2.05-.09-3-1.32A10.44,10.44,0,0,0,307.7,63Zm73.06,46.16c1.94,1,2.71,2,.43,3.06-1.58-.24-2.07-2-4.57-1.64C378,108.92,379.36,110.41,380.76,109.15ZM302,46.77c-1.92,1.21-3.83,2.23-5.69,1.78C298.21,47.36,300.14,45.51,302,46.77ZM345.23,77.4c-1.22,1-2.41.68-3.58-.29C342.88,76.09,344.06,76.43,345.23,77.4Zm-15-12.69c-1.91,1.08-3.8,1.73-5.65.43C326.46,64.09,328.32,64.62,330.2,64.7Zm13.16,5.93c2.7,1.31,5.48-.61,8.21-.12-1.75,2.48-4.93,1.54-8.77,1.82-.54.51-.28,1.23-1.54.36C341.44,72,342,71.33,343.37,70.63Zm43.42,23.83c-2.6,1.48-5.16,1.34-7.72,1.13C381.68,94,384.24,94.28,386.79,94.46ZM313.87,43.54c-1.39.85-2.75.61-4.13.74,1-1.15-.21-2.26,1.12-3.41C313,41.74,312,42.66,313.87,43.54ZM305.62,45c-.8-1.69-2.05-.91-4-2,3.52-.39,6.33-4.16,8.24-1.47C306.86,42.15,307.06,43.57,305.62,45Zm8.67,1.57c-1-1.38-4.73.56-4.06-1.3,1.88-.06,3.77-.57,5.61.94-1,.58-.72,1.14.47,1.69a7.37,7.37,0,0,1-5.14.76C311.93,48,315.18,47.88,314.29,46.59Zm35.36,19.19c-1.36-.68-2.76.59-4.09-.62C346.67,64,350.3,64.76,349.66,65.78Zm-6.16.09c1.52-.82-1.54-1.56.58-2.39C346.31,64.06,345.45,66.36,343.49,65.87Zm11.62,6.28c1.4-1.26,2.76-.88,4.13-1.42,1.33,1.43,2.71,1,4.07,1.3-2.22.72-1.23.75-3.13,2.08-.88-1.3-1.56-1.82-3.59-.29C355.69,73.28,355.16,72.72,355.12,72.16Zm80.67,48.43c-1.46,1.52-3.66.93-3.65,2.43l-1-.66c-.35.19-.69.36-1,0A4.79,4.79,0,0,1,435.78,120.58Zm65.31,47.29c1.32.49,2.56-.39,2.54,1C502.23,170.29,499.66,168.94,501.09,167.87ZM319,44.83a7.87,7.87,0,0,1-4.59-1C315.65,42,319.42,44.24,319,44.83Zm105.87,64.37a7.87,7.87,0,0,1-6.16.1A7.85,7.85,0,0,1,424.83,109.19ZM338.89,46.91c-1.07-.42-.57.52-1.57,1-2.17-.27-2.26-2.27-5.11-.6-.25,1.17,3,.79,1.48,2.36-2,.06-3.24-.53-4.05-2C332.44,45.76,337.9,44.82,338.89,46.91Zm70.89,50.27c2.21.45,4.49-1.58,6.65.24-1.91,1.37-3.78.84-5.69,1.78C409.45,98.55,409,97.87,409.78,97.18ZM370.11,67.52a5.09,5.09,0,0,1,3,1.32C371.71,70.43,368.59,68.59,370.11,67.52ZM346.57,47.14a2.24,2.24,0,0,0-1.07,1.38,5.13,5.13,0,0,1-3-1.32A3.75,3.75,0,0,1,346.57,47.14Zm33.77,20.91c-1.54.14-3.13,2.33-4.64,1.09A5.65,5.65,0,0,1,380.34,68.05Zm14.72,5.56c-2,1.68-2.67-.28-3.64,1.75-.92-.55-1.45-1.11-1.5-1.68A3.9,3.9,0,0,1,395.05,73.62Zm-11.26-.52c2,1.4,4.14-1.41,6.12.59C388.14,75.68,383.78,74.82,383.79,73.1Zm-30.15-22c-1.42,1.79-2.74.25-4.09-.62C350.95,49.32,352.28,50.87,353.64,51.12Zm33.84,18.2c-1.4,1.4-2.75.45-4.12.73C383.39,68.48,386,68.13,387.48,69.32Zm6.23-2.81C391,68,389.88,68.1,389.51,70c-1.86.06-1.24-1.12-2-2,1.4-1.25,2.75-.88,4.14-1.41-.68-.35-2.07-.13-1.52-1,3.12-.82,4.53.47,6.62,1.6-.55.57-.28,1.14-1.58,1.72C393.13,68.1,394.44,67.29,393.71,66.5Zm7.59,3.63c-3.46,1.39-6.87,1.26-10.28.83C391.55,67.74,397.81,69.1,401.3,70.13ZM352.39,40.6c-2.59.65-5.13-.13-7.68-.23C347.28,39.6,349.86,39.19,352.39,40.6Zm15.1,10c-.21.9-.43,2.63-2.61,1.73C364.9,51.91,366.17,49.89,367.49,50.58Zm-3.38-7.77c2.82.76-2.08,1.62-.58,2.39,1.34.67,2.77-1.45,4.1-.06-2.78,1.62-5.5,1-8.22.8C360.12,44.45,362.9,45,364.11,42.81Zm41.18,31.34c3.39-2.16,6.92.92,5.56,3C409.3,75.8,409.63,75.12,405.29,74.15Zm.63-4.42-2.6,1.73c-.51-.45-1.53-.88-1-1.34C403.48,71.11,404.78,67.86,405.92,69.73Zm-20.07-16c1.49.77.21,1.59-.58,2.39-.67-.4-1.36,0-2-.65ZM377.35,46c1.11,1.23,1,2.47-.62,3.74C374.35,48.58,375.43,46.22,377.35,46Zm26.1,20c1.55-1.59,4.1.26,4.06,1.3C405,68.93,405.69,67,403.45,66ZM386.08,45.55a4.56,4.56,0,0,0,2.54,1c-2.51.86-3-.52-4.66,1.77-.77-2.12-2.52-.36-4.57-1.63C381.64,45.36,383.81,47,386.08,45.55Zm14.27,3.19c-3.19-2.3-9.24.91-10.72-1.55C392.62,47.31,400.82,45.06,400.34,48.75Zm-3.08,0c-1,.7.71,1.35-1.07,2.05-.85-.34-1.71-.14-2.54-1C395.92,49.33,395,48.2,397.26,48.79Zm18-1.28c1.16,1.28,2.4-.31,3.57,1a5.56,5.56,0,0,1-4.13.74C415.3,48.64,414.74,48.08,415.24,47.51Zm45.52,21.76c-1.79.19-7.06,1.82-5.61-.93C456.67,69.77,460.94,67.82,460.77,69.27Zm51.31,34.59c2.36.89-.56,3-2.1,2.07C511.43,105.23,510.19,104.56,512.08,103.86ZM459.27,67.59c-1.22,1-2.39.2-3.57-.29,1.38-.63,1.28-2.91,2.64-2.41C457.86,65.8,459.13,66.69,459.27,67.59Zm1.63-3.08c2.59.91.24,3.38-1.61,2.4C459.35,66.13,458.8,65.34,460.9,64.52ZM440.31,48.85c1.49,1.92,3.1-.64,4.59.95-2.6,1.18-5.16,1.08-7.72,1.13ZM461,61.8l-2.08,1.38-1.52-1C458.6,60.78,459.78,61.61,461,61.8Zm9,6.66c2.68-1.76,2.26,1.1,5.09,1.28C473.36,70.34,470.13,69.77,470,68.46Zm6.62,1.61,2,1.33c-1.1,1.24-4.76,1.74-4.1.06C475.87,72.22,476.46,70.38,476.63,70.06Zm51.87,32.88c-1.21.24-2.38-.57-3.56-1,7.19-.56,14.37-1,21.51.37-2.12,2.53-4.07-1.14-6.17.76,1.33.79,2.57.38,1.49,1.68-2.27.06-1.28-1.42-3.52-2.33-2.27,1.75-4.42-.82-6.69,1.12,1.36.28,2.73-.13,4.07,1.29-1.05,1-2.06.15-3.12,1.41-1.85-.48.48-2.66-2-2-1.51.81,1.55,1.56-.57,2.39a4.21,4.21,0,0,1-3.06-.64C527,105,529.14,104,528.51,102.94ZM470.15,63.7c2.34,1.85,4.78.22,7.14,1.26-1.38,1.4.4,2.51-2.65,3.1-2.42-.87-.52-1.8-.95-2.7-1.55.43-3.07,0-4.64,1.08C467.23,65.55,468.55,64.63,470.15,63.7Zm-18.07-14c-1.74,1.14-3.49,2.6-5.16,1.44C448.64,50.56,450.4,48.64,452.08,49.69Zm37.7,27-2.09,1.39-1.51-1C487.39,76.06,488.6,75.68,489.78,76.66Zm15.6-8.37a2.66,2.66,0,0,1,2.56.3c-3.74,1.83-5.61-2.42-7.61-2.95l-2.6,1.74c-3.89-2-7.81-1.55-11.77-.85A5.61,5.61,0,0,1,482.78,70c-.21-2.63-1.93.95-4.08-.62,3.3-1.87,5.92-3,7.83-5.21,3.25,3,9.19-.47,13.35-.87-.49.69-3.28,1.41-2.11,2.07,1.9-1,3.78-.65,5.69-1.78-.68-.34-2.08-.13-1.52-1,1.88,1.12,6.49-1.19,6.63.92-2.5-.88-6.4,1.79-4.19,3.46.31-2.47,7-1.2,7.17-.11C509.67,66.79,504.15,65.88,505.38,68.29Zm2.15-3.43c0-.76,2.22-1.72,3.64-1.75-1,1.09,2.31.24,3,1.31C511.95,65.67,509.75,65.07,507.52,64.86ZM452.06,50.38a19.51,19.51,0,0,1,7.68.23C457.31,51.32,452.79,52.28,452.06,50.38ZM472.75,62c-1-.37-2.07.81-3.06-.64C470.5,59.55,473.7,61.07,472.75,62Zm9.71.88c-1.26,1-5.11,1.53-4.6-.27C479.39,63.11,480.95,62.31,482.47,62.84ZM464.37,50.2c0,1-2.65,1.82-4.12.74C461.64,49.69,463,49.93,464.37,50.2Zm87.7,53.08c-.43,1.53-3.08.3-2.63,2.41C546.9,104.78,550.54,102.29,552.07,103.28Zm5.64-.42c0,1.5-2.63,1.09-4.18,2.78l-1.5-1C553.95,103.5,555.86,101.85,557.71,102.86ZM496.3,63c-1.25.29-5.12,1.6-4.61-.28C493.23,63.07,494.79,62,496.3,63Zm-9.45-10.4c-1.23,1-2.43,1.38-3.6.4C484.48,52,485.69,51.61,486.85,52.59Zm30.37,13.84c1.36.12,2.73-.18,4.09-.06-1.69,1.2-1.76,2.5-4.16,2.09C518.1,67.77,515.86,67.12,517.23,66.42Zm10.67,2.9a4.6,4.6,0,0,0,2.54,1l-1,.7c.28.22.52.44,0,.68-2.81-1.51-.74,1.48-2.1,2.07-1.18-.48-2.4.39-3.56-1C526.15,71.61,526.2,70.48,527.9,69.32Zm-6-6c.65.55,2,1.1,1.49,1.67-2.37-.6-4.82,1.42-7.16-.58C518.91,63.29,520.35,64.76,521.92,63.3Zm150.42,99.39c1.82.88.49,1.81-1.1,2.74a4.06,4.06,0,0,0-2-.65C669.19,163.87,671,162.68,672.35,162.69Zm-91.53-61.18a5.24,5.24,0,0,1,5.11.61c-1.61,1.26-1.78,3.84-4.68,2.44C582.79,103.16,583.88,102,580.81,101.51ZM539.66,70.17c-2,.06-2.39-1.1-2-2-3.64,1.67-9.92,1.06-11.74-1.52,4.32,1.47,9.37.46,12.32-.86-.68.92,0,1.81,1,2.71.22-1.47.4-1.59,2.62-1.74,1.14.54.29,1.12.46,1.69,1.1-1.85,1.14-.61,3.11-.73-1.45-1.38,1.73-1.74,3.09-.72,0,1.17-2.2.87-3.66,2.43C541.26,69.09,541,68.1,539.66,70.17ZM501.51,41.51c2.67,1.37,4.68-1.92,6.21-2.13,2.15,1.71-1,1.53-2.14,3.43-1-1.35-2.06.19-3.1.73C501.18,42.87,500.71,42.2,501.51,41.51Zm37.3,22.56c2.2.58,4.43.56,6.64.92a10.06,10.06,0,0,1-4.64,1.09C541.76,65.53,536.64,65.91,538.81,64.07Zm-19-17.39c0,.9-2.24,2.66-3.63,1.75C517.39,48,518.64,46,519.81,46.68Zm-2.89-6.75c-1.23,1.3-2.39.44-3.64,1.75,1.33.79,2.57.38,1.5,1.67-1.56-.41-5.78.36-5.6-1.62C511.39,40.71,513.67,38.84,516.92,39.93ZM551,67.29c.87,1.6,4.4-1,3.56,1C553.13,68.65,549.44,69.38,551,67.29ZM540.61,54.87c-2.07.53-4.11.35-6.18.77C534.61,54.69,540.49,53.19,540.61,54.87ZM522,42.57a2.24,2.24,0,0,0-1.06,1.38c-1.22-.65-5.07-.22-4.56-1.63C518.2,43.27,520.14,41.14,522,42.57ZM572.57,66.3c-3.19,1.06-8.28,1.13-12.34,1.53.74.78,2,1.56.44,2.37-.57-2.87-2.16-.67-5.07-2,1.92-1.37,3.44-1.41,2.67-3.78C561.59,68.17,567.69,64.94,572.57,66.3Zm133.1,95.57c-1.69-.51-3.46,1.58-5.13.07C702,161.38,706,160.25,705.67,161.87Zm-88.45-61.23c1,1.07,2,1.06,3.08,0,2,2-3.39,4.59-6.25,3.49C617.1,102.6,616.94,102.5,617.22,100.64Zm-85-57.54c-3.1.85-6.15,0-9.23.14l1.57-1C527.09,43.06,529.68,42.24,532.22,43.1ZM581,77.39c-2.07-.08-6.82.63-7.14-1.26C575.88,76.94,580.67,75,581,77.39ZM576,70.67c2.69,1.44,5.45.1,8.17,1.24-3,1.61-8.56.84-9.73-.2C575.39,72.14,576,71.18,576,70.67Zm-39.71-28.3c-.85.57,1.11,1.11.47,1.69-1.35-.68-2.75.59-4.08-.62C533.95,42.52,535.16,41.69,536.34,42.37Zm9.72.87a5.14,5.14,0,0,1-5.14.76C542.62,43.61,544.36,42.47,546.05,43.24Zm30.62,23c3-1.61,3.49.06,5.59,1.62-1,.58-1.51,1.15-1.59,1.71l-1-.66C580.67,67.24,579.23,66.68,576.67,66.24ZM541.05,38.56c2.72.37,5.5-1.19,8.18.56-2.69.37-1.87,2.57-4.17,2.78-2.77-.67.13-3.13-2-2.69-.78.81.49,1.58-1.6,2.4C540,40.62,540.8,39.59,541.05,38.56Zm12.17,4.58c-.18.68-.73,1.37-2.1,2.07-1.33-1.61-2.73-.09-4.07-1.3l1-.69C549.61,44.52,550.68,42.85,553.23,43.14Zm40.86,23.53c-2.41,0-9.15,3.32-8.21.12C588.58,68.2,591.39,65.1,594.09,66.67Zm15.23,5.22a5.53,5.53,0,0,1-4.12.74C605.21,71.61,607.84,70.79,609.32,71.88Zm.61-3.75c-3.13-.7-11,2-10.71-1.54C602.42,68.29,608.44,66.15,609.93,68.14Zm17.71,8.24c-1.4,1.25-2.77,1-4.12.74C623.54,76,626.16,75.68,627.64,76.37Zm-3.45-5c2.82,2.83,5.8.42,8.68,1.57-1.75,2.13-7.43.49-10.78.5C623.55,72.7,622.3,72,624.19,71.33ZM625.25,70c3,1.78,3.36-2.62,6.69-1.12-2.81,1.21-1.44.86-2.63,2.42C627.81,71.38,623.68,71.88,625.25,70Zm17.42.43A4.61,4.61,0,0,1,638,71.47C638.12,70.22,641.12,68.67,642.67,70.38ZM609,45.39c-1.76,1.84-3.44.81-5.14.76C605.6,45.76,607.34,44.61,609,45.39ZM608,44c-1.09,1.06-4.73.79-4.08-.62C605.3,44.25,606.73,42.29,608,44Zm7.59,3.63c-.89.69,1.38,1.34,1,2-1.23,1-2.43,1.37-3.6.39C614.66,49.47,612.93,47.2,615.63,47.67Zm-.31-7.13c-.24.55-2.26,1.71-1.63,3.09,1.22-.71,2.39.09,3.57,1-2.59,1-5.21,3.05-7.74,1.81C613.44,44.7,610.51,39,615.32,40.54Zm46.16,35.34c-1,1.5-4.39,1-3.58-.29C659.08,76.09,660.32,74.51,661.47,75.89ZM622.87,45.53c-1.23,1-2.43,1.37-3.6.39C620.49,44.92,621.7,44.55,622.87,45.53Zm32.66,23c2.42-.36,6.95-.93,7.67.91,1.87-1.16,5.36.64,5.68-1.79l2,1.33c-1.36,1.31-2.56.45-2.61,1.74-2.92-.82-4.45-.81-5.16,1.43-2.18-.65-.4-1.35-1-2l-2.62,1.74C657,69.92,659.6,68.87,655.53,68.5Zm18.4,1.77c2.81,2-3.48,3.53-5.18,2.11.62-.58.05-1.13.56-1.71C672.65,70.39,671.61,73.09,673.93,70.27Zm5.71-2.46c2.5,1.21-.12,2.49-1.65,3.76-.84-.49-1.72.62-2.56-.3C677.34,69,678.35,70.33,679.64,67.81Zm12.59,7.63c-1.55.66-3.12,1.5-4.62.4A3.84,3.84,0,0,1,692.23,75.44Zm145.85,78.4c1.25-.71,5.11-1.48,4.6.27a2.23,2.23,0,0,0-3.12,1.4C838.65,155,838.11,154.41,838.08,153.85Zm-118-84.24c2.94,2-5,4.63-4.66,1.76C717.6,72.21,717.38,69.89,720.07,69.61ZM846.29,153c2.77-.71,8.24-2,9.2.54-3.67-1-1.6,1.75-3.15,2.76-1.9-1.21-1.15-2.47-1.43-3.72C849.27,154.31,846.31,155,846.29,153Zm15.9-.57c-1.36-.27-2.75.73-4.1.06C857.81,150.42,864.1,150.77,862.19,152.48ZM719.31,42.11a5.59,5.59,0,0,1-5.13.07C715.94,40.61,717.62,41.38,719.31,42.11Zm9.28-2.18c1.4-2.67,2.45-.11,4.1-.06-1.29-1.77,1.27-3.08,2.17-4.11,2.48,1.44-3.11,3-.64,4.43.55-.57.28-1.14,1.59-1.72.76,0,4,1.09,3,2-2.91-1.12-13.84,5.36-11.28.16-2.07,0-6.85,1.62-7.15-.57C721.63,38.71,727.45,38.23,728.6,39.93Zm3.17-3.44c-2.6,1.26-5.16,1.12-7.72,1.13C726.64,36.58,729.24,35.4,731.77,36.49Zm164.4,110.07c2.21.84,7.21-2.29,7.68.23C901.45,146.62,896.88,149.12,896.17,146.55ZM741,35c.66.55,2,1.11,1.49,1.68-2.53-1-3.62-.65-4.65,1.08C736.32,35.85,739.16,35.65,741,35Zm9.64,3.6c1.15,1.28,2.42-.8,3.56,1C752.78,40.33,749.11,40,750.68,38.6Zm-3.89-7.42c1.29.66,1.77,1.33,1,2-.67-.33-1.34-1-2-.65-.52.2-1,.68-1.55.36Zm175,114.33c-.55.57-.29,1.14-1.58,1.72-1.16-1.35-2.38-.48-3.56-1C918.41,145.21,920.14,144.41,921.82,145.5ZM769.16,37.64c-.35.68,2.25.72,2.53,1,.63-.58.06-1.14.56-1.71,2.7-.33,3.57,1.52,1.46,3-2.73-.26-5.48.19-8.18-.56C767.52,38.61,768.23,37.67,769.16,37.64ZM931,148.09l-2-1.33C930.57,145.16,933.37,147,931,148.09ZM782.45,38.81c1.55-.58,3.09-.86,4.6.27a4.53,4.53,0,0,1-4.62.41C782.72,39.26,783,39,782.45,38.81ZM953.38,142.45c1.14.5,2.32.11,3.45,1-.75.41.44,2.41-1.55,1.71,1-.9-.12-1.71-1.46-1a1.76,1.76,0,0,1-.06,2c-1-.67-2,.5-3-.67C953.31,144.48,950.87,143.46,953.38,142.45ZM797.92,35.19c2.22.64,7.18-.75,7.67.91-1.52-.47-3.09.38-4.62.4.83.71,1.69.35,2.53,1-1.44.63-3.66,1.11-3.65,2.43A10.68,10.68,0,0,1,797.92,35.19ZM963.33,142.42c-.77.79-.24,1.58-1.58,2.38C960.61,143.85,961,141.42,963.33,142.42ZM808.64,36.73c2.48,1.44,2.22,2.91,1.41,4.39a4.14,4.14,0,0,0-2-.65C809.19,39.22,806,38,808.64,36.73ZM967.73,144.11c-1.19,1-2.36,1.35-3.49.35C965.44,143.47,966.61,143.11,967.73,144.11ZM815.33,35.62c-2.75.41-5.49,1-8.21.11,2.93-.41,3.53-1.05,5.67-1.1-.29.34-.18.68.49,1C814,35.27,814.66,34.93,815.33,35.62Zm4.07,1.3c-.61.58.51,1.13.46,1.69-2.94,1.5-5.84,1.25-8.72.47,1.66-.93.47-1.82,2.14-2.75C815.3,36.87,817.37,36.27,819.4,36.92ZM980.26,141.78c-1.86,1-3.23,2-2.64,3-1.45-.92-3,.15-4.45-.36,2.88-2.22-1.38-1.31.11-2.72C975.55,143,978,141.16,980.26,141.78ZM823.09,33.13c1.07.55.52,1.13,1.49,1.68.53-.35.21-.68.54-1,2.2.77.93,1.57-.58,2.39-.67-.34-1.34-1-2-.65.5.44-.28.91-1.06,1.37l-1.51-1C822.72,34.36,822.24,34.81,823.09,33.13Zm7,4.65c1.73-.87,3.41,0,5.13-.07C833.5,39.43,830.22,39.8,830.14,37.78ZM841.5,34.9c1.54-.29,3.11-1.13,4.62-.41-1.41,1.64-2.75.42-4.12.74.28.33,1,.66.48,1A2,2,0,0,1,841.5,34.9Zm11.72,2.21c-1.69-.69-3.43.62-5.11-.61C849.54,35.58,853.56,35.46,853.22,37.11Zm-1,.69a1.45,1.45,0,0,0,1.54-.36c1.29.66,1.77,1.34,1,2-.84-.39-1.71,0-2.55-.31C852.81,38.7,851.73,38.27,852.17,37.81ZM864,38a9.72,9.72,0,0,1-8.22.8C858.5,37.22,861.19,38.69,864,38Zm1.65-3.76c-1.06,2.39-4.28,2.13-6.72,1.8C861.15,34.46,863.4,33.34,865.6,34.21Zm12.69,4.23c.51.56.22,1.13,1.49,1.67-2.26,1.31-4.5,2-6.68.44C875.76,40.37,878.21,39.36,878.29,38.44Zm30.39-5.54c-1.23,1,1.58.1,2,1.33-.94,1.1-4.36.05-3.56-1C908.21,33.81,907.71,32.51,908.68,32.91Zm215.45.25c1.34.61,2.77.31,4,1.63-2.25,1.41-4.35,1.49-6.46,1.62l-1.45-1.11C1123.25,34.72,1122.76,35,1124.13,33.16Zm17,2.83c-2.09-1.79-5.41.88-4.49-2C1137.8,34.86,1141.79,34.2,1141.12,36Zm187.66,116.87c-5,1.81,4.82,1.27-.68,4-1.48-1.66-1-1.71-3.23-2.11C1325.43,153.87,1326.6,151.56,1328.79,152.86Zm-5.69,3.4c-.61-.43-1.17-1.18-1.9-.92-.83.62-.15,3.14-2.45,2.44-.27-.83,1.1-1.47-.11-2.41,2.73,0,2.86-2.86,5.57-2.73C1324.6,153.93,1325.44,155.28,1323.1,156.25ZM1192.39,36.68c1.69-.83,3.18-.21,4.71.07-.11,1.17-2.3.64-3.93,2C1191.47,38,1193.34,37.45,1192.39,36.68Zm144,116.83c1.24,1.3.18,2.3.42,3.48-1.21-.85-2.9,1-4-.52C1334.46,154.93,1334.74,155.19,1336.37,153.51ZM1203.14,38.64c-2.46-.87-2.07,1.44-4.23.31C1198.51,38.14,1204.09,36.45,1203.14,38.64ZM1337.82,154a2.22,2.22,0,0,1,3,.39c-.67.76-1.24,1.28-2.24,1.08C1339.16,155.13,1338.49,154.58,1337.82,154Zm18.27-108.93c-1.7-1.3-4,.6-5.71-.41C1352.26,43.12,1356.52,43.4,1356.09,45.11Zm8.36.4c-2.56-.45-5.28.05-7.66-1.34A7,7,0,0,1,1364.45,45.51Zm3.9-1.2-2.3,1.07-1.37-1.2C1366.13,43,1367.19,44,1368.35,44.31Zm155.18,76.59c1.41,1.38,0,2.3-1.72,3.15-2.56.49-6.1-.17-10.08.71-.43-.53-1.33-1.15-.74-1.5C1513.8,122,1519.33,121.34,1523.53,120.9Zm13.71,2c.72.82,1.07,1.56.58,2.17-3.45-.23-7.07.37-10.38-.43C1530.75,123.86,1533.92,123.72,1537.24,122.92ZM1463.3,50.51c-.64,1.26-4.72,2.05-6.56,1C1459.15,50.09,1461.17,50.6,1463.3,50.51Zm89.81,71.73c-4.71,1-8.64,1.1-11.26,3.55l-1.73-1.68C1543.29,123.9,1547.65,120,1553.12,122.24Zm-51.71-76.66a5.18,5.18,0,0,1,2.78-.58c2.33,2-2.31,2.84,1.08,5-1.94,0-4.15,1.24-5.71-.58C1502.9,50,1504.27,47.87,1501.41,45.58Zm88.89,84.1c1.3,1.16-.56,1.74-.6,2.65-1.06-.71-2.43-.08-3.31-1.64C1587.76,130.12,1588.84,130.72,1590.3,129.69ZM1575.66,99c1.35.65,2.8-1.54,3.64-2.1,2,1.06.14,1.41.57,2.17a1.43,1.43,0,0,1,1.45.61c-2.61-.09-4.74-.78-4.07,1.67A1.92,1.92,0,0,1,1575.66,99Zm-13.86-35.26c-1-1.18-2.61.6-3.51-1C1559.52,61.5,1562.85,62.63,1561.79,63.77Zm14.32,2.56c-2.8.6-5.57,1.14-7.89-.37C1570.8,66.27,1573.8,64.76,1576.11,66.33Zm10.07,2.52c-1.51.41-3,.84-4.09-.76A3.81,3.81,0,0,1,1586.18,68.84Zm.48-6.82c1.11,1.31,1.64,1.41,2,.38,2.08,1.51-2.76,2.08-3.37.77A2.29,2.29,0,0,0,1586.66,62Zm88.65,29.22c-.3,1.21-3.09,1.49-4.58,1.14C1670.95,91.49,1674,90,1675.31,91.24Z"/><path class="cls-2" d="M462.05,41.06c-.63.67,1.34.29.48,1,5.73-3.36,11.31-.93,17-2.63-4.75-1.17-9.54-.83-14.33-.47-.53.46.47.9,1,1.35C464.8,40.46,463.41,41.33,462.05,41.06Z"/><path class="cls-2" d="M113.72,169.39c1.68.85,3.44-.76,5.15-.75C117.16,168.51,115.46,167.94,113.72,169.39Z"/><path class="cls-2" d="M206.2,159.9c-1.3.58-1,1.15-1.58,1.72.84.35,1.72-.59,2.59-1a2,2,0,0,0,1,1.34C209.47,160.59,207.53,160.57,206.2,159.9Z"/><path class="cls-2" d="M130.12,111.07c-2.11.45,3.22.18,3,2,.91-.81.38-1.59.57-2.39C131.47,109.68,132.35,112.08,130.12,111.07Z"/><path class="cls-2" d="M163.41,131c-1.23.69-1.25,1.37,0,2,0-.89,1.25-1.25,2.59-1C167,131,164,131.46,163.41,131Z"/><path class="cls-2" d="M157.47,122.9c-.18-.56.68-1.14-.47-1.69-1.37.7-1.92,1.38-2.1,2.07,1,.59,2.07-.92,3.08,0C158.47,122.78,157.76,122.71,157.47,122.9Z"/><path class="cls-2" d="M230.53,169.74c1.81,1.52,1.29-.88,2.09-1.39,1.47-.81.15,1.05,2,1.34,2.79-2,5.51-1.61,8.23-.8.51-.69.56-1.37,1.07-2.05-2.27,1.09-7.06,1.53-10.77.5C232,168.89,230.57,168.58,230.53,169.74Z"/><path class="cls-2" d="M152.57,114.82c6.25-.58,10.39-.12,16.45-2.27-.75-.64-2.19-.27-1.51-1-2.24-.59-1.34.55-3.62,1.07.43-1.73-7.71-.21-5.59-1.62C157,109.74,153.59,113.12,152.57,114.82Z"/><path class="cls-2" d="M257.39,180.57c1.53,1.3,7.48,1,10.76.18C264.56,180.77,261,180.54,257.39,180.57Z"/><path class="cls-2" d="M84.84,59.07c0,1.24-1.73.62-3.13,2.09,3.29.63,3.18-.57,4.64-1.09C86.91,59.41,85.5,59.79,84.84,59.07Z"/><path class="cls-2" d="M165.89,114.63c1.88-.41,3.74.43,5.66-1.1C169.72,112,167.78,114.27,165.89,114.63Z"/><path class="cls-2" d="M251.21,162.65c-1.44.59.22,1.13-.56,1.71,1.18.59,2.4-.26,3.6-.39C255.2,162.93,251.92,164.48,251.21,162.65Z"/><path class="cls-2" d="M137.18,76.32c.49-.34-.21-.67-.48-1,1.05-1,2-.15,3.11-1.4-2-.46-4.07-1.08-6.17.77C135.6,75.4,136.31,74.5,137.18,76.32Z"/><path class="cls-2" d="M194.08,95.2c2.66-1,2.26.7,5.11.6a16.92,16.92,0,0,1,2.12-2.74C199,94,194.75,93.92,194.08,95.2Z"/><path class="cls-2" d="M309,166.91c-.91-1.23,2.72-.63,2.1-2.07-1.17-1-2.42,1.09-3.57-.29.44,1.4-2.36,2.12-.12,4.08a5.55,5.55,0,0,1,4.12-.74C312.62,167,309.59,167.4,309,166.91Z"/><path class="cls-2" d="M318.19,168.14c2.36,1.07,4.82-1.53,7.15.58,1.67-1.31-1.4-.87-.46-1.69C322.64,167.45,320.43,167.28,318.19,168.14Z"/><path class="cls-2" d="M329,166.28c-1-.55-.42-1.13-1.49-1.67a14.09,14.09,0,0,1-8.71-.22c.46,2.84,5.44.49,7.61,2.95,1.76-1.78,3.44-.69,5.1.61,3-.58,3-1.39,5.71-2.46-1-.31-2-.32-3.05-.63-1.44.59.21,1.13-.56,1.7-.52.22-1,0-1.55.37-.57-.68,1.21-1.38-1-2C329.72,165,329.18,165.39,329,166.28Z"/><path class="cls-2" d="M188.93,38.55c-.5.46.21.53.5.34.76.44,1.51.88,1,1.34.84.35,1.72-.59,2.59-1.05C191.66,38.68,190.29,38.83,188.93,38.55Z"/><path class="cls-2" d="M238.42,47c-.87.89,6.64,2.51,9.21.55-.75-.29-4,1-3.06-.64C242.55,46.14,240.42,48.75,238.42,47Z"/><path class="cls-2" d="M264.43,51.73c2.12.58,3.06,3.08,6.11,1.27-.54-2.67-5.64-.33-5-3.32C263.2,50.39,266.75,51,264.43,51.73Z"/><path class="cls-2" d="M364.07,100.9c-1.11,1.39,1.94.49,2.54,1,1-.52.49-1.47,1.57-1,.54-.23.29-.46,0-.68l-1-.66c.55.49-2.54,2.55-1.56,1C364.64,100.14,365.14,101.44,364.07,100.9Z"/><path class="cls-2" d="M322.29,53.94c0,1.26,4.39.82,6.11,1.28-.62,2,3.54,3.39,5,4-.09-1.92-1.49-3.82-2.4-5.73-.44,3.43-3.25-.46-6.66-.25C324.17,54.11,323.63,54.44,322.29,53.94Z"/><path class="cls-2" d="M339,60.16c.67,1.38,5.78.69,8.17,1.24,1.57-1.26-3.57-.54-2-2C344.29,59.84,341.34,61.18,339,60.16Z"/><path class="cls-2" d="M334.06,54.79c-2.08.9.2,1.2,1,.67.88.56.92,1.12.47,1.69.84.31,1.71-.09,2.56.31-.94-.57-1.6-2.81,1.56-1,.56-.58-.82-1.12-1.49-1.68A3.72,3.72,0,0,1,334.06,54.79Z"/><path class="cls-2" d="M360.17,56.12c-.85-.31-1.72.09-2.56-.3-2,.82.38,1.58-1.6,2.4C357.67,58.07,357.72,57.22,360.17,56.12Z"/><path class="cls-2" d="M383.13,40.84c-.2,1.25-.72.41-2.09,1.39,1.94.76-1.19,1.61,1.48,2.36l1.57-1c-1-.88-1.83-1.85,1.06-1.38C386.37,41.2,383.56,42.07,383.13,40.84Z"/><path class="cls-2" d="M420.42,64.08c-1.32-.39-.27.9.5.33.33.68-.17,1.36-1.08,2.05,1.66.38,3.88-2.06,2.12-2.75A1.46,1.46,0,0,1,420.42,64.08Z"/><path class="cls-2" d="M478.73,105.36c.68.32.81-.16.53-.35,1.56-1.15,3,1.71,4.62-.41-1.66-1.68-3.41-.37-5.11-.61C478.33,104.46,479.42,104.89,478.73,105.36Z"/><path class="cls-2" d="M438.06,37.67a6.58,6.58,0,0,0-6.14-.59c2.35,1.86,4.75,1.24,7.1,2.62,1.15-2.42,4.65-1.17,7.24-2.14C445.75,37.68,438.66,35.73,438.06,37.67Z"/><path class="cls-2" d="M444.66,40c2.73.21,5.51-1.52,8.21-.12.58-3.83,8.06.73,11.82-1.19,0-.56-1.07-1.12-.47-1.69-2.23.35-4.5,2.11-6.66-.24-3.28,1.37-6.5.45-9.75.48-.55.58.83,1.12,1.5,1.68C447.74,39.52,446.25,38.32,444.66,40Z"/><path class="cls-2" d="M439.23,32.21c.66,3.58,12.36,3.11,14.83,1.49C449.28,33.54,442.28,35.25,439.23,32.21Z"/><path class="cls-2" d="M477.59,35.4a38.89,38.89,0,0,0,6.13.59C483.73,34.6,479.33,35,477.59,35.4Z"/><path class="cls-2" d="M505.24,36.36c3.21,1.32,10.89,1.27,15.86.8-2.1-1.88-4.31.33-5.07-2-.44,2.47-4.16-.33-6.19,1.45-1.91-.9,1.52-2.43-1.47-2.35C509.27,36.05,507.81,36.47,505.24,36.36Z"/><path class="cls-2" d="M504.31,33c0,1.86,4.41.24,6.14.59,1.11-1.3-1.95-.39-2.52-1.66C506.12,33.36,506.61,33.72,504.31,33Z"/><path class="cls-2" d="M522.13,37.14a29.09,29.09,0,0,0,10.74.86C531.29,33.83,525.5,36.39,522.13,37.14Z"/><path class="cls-2" d="M577.43,39.06c1.51.28,3-.15,5.64-.42l-1.51-1C580.16,39.29,578.84,37.8,577.43,39.06Z"/><path class="cls-2" d="M606.8,33.53l-3.13,2.09c2.62.47,2.68-2.27,5.67-1.1C610.43,33.61,607.39,34,606.8,33.53Z"/><path class="cls-2" d="M636.5,34.47c.83,3.19,3.08-1.76,5.59,1.62a2.27,2.27,0,0,1,1.07-1.38C641,33.21,638.72,34.67,636.5,34.47Z"/><path class="cls-2" d="M685.24,32.74c-1.32-.4-.28.9.49.33.89.79-.39,1.59-.58,2.39,1.71.12,3.47-1.51,5.13-.07,2.16-3.38,4.89-1.29,7.74-1.81,2.32-.71-1.22-1.34,1.08-2.05-2.92,1-5.8-.42-8.75,1.15-1-.55-.42-1.13-1.5-1.68C688.9,32.08,686.66,32.76,685.24,32.74Z"/><path class="cls-2" d="M768.79,32.55c2.69,1.49,5.53-2,8.2-.12.55-.58-.83-1.12-1.48-1.68C773.21,32.87,771.06,30.44,768.79,32.55Z"/><path class="cls-2" d="M822.69,29.4c0,1.29,6.51,1.28,6.66.24C827.13,29.46,824.88,30.26,822.69,29.4Z"/><path class="cls-2" d="M873.77,35.46c.79-.92.62-1.82,1.1-2.73a5.56,5.56,0,0,0-4.12.73c1,1.14,2.06-.07,3.08,0C874.75,34.09,870.52,34.2,873.77,35.46Z"/><path class="cls-2" d="M1074.88,27.26c-.47,1.81,3.75.66,5.09,1.63.56-.2.33-.43.06-.67l-1-.73C1077.57,28.42,1076.28,27.23,1074.88,27.26Z"/><path class="cls-2" d="M1243.53,159.67c2.79.55,5.7.31,8.45,1.25,1.44-1.88,5-.54,7.65-.21.36-.3.1-.67.65-1-.48-.28-.21-.48.1-.67C1254.66,159.94,1249.26,158.65,1243.53,159.67Z"/><path class="cls-2" d="M1379.87,35.94c2.88-.52-.32-1.87,2.56-2.39-.48-.27-1-.13-1.49-.55l-1.16.53C1382.36,34.69,1377.29,34.79,1379.87,35.94Z"/><path class="cls-2" d="M1402.77,40.83c2.56,2.32.12-2.62,2.88-1.3,1.16-1.07-2.11-1.54-3.08-.45C1403.66,39.81,1403.86,40.41,1402.77,40.83Z"/></g></svg>