<svg xmlns="http://www.w3.org/2000/svg" viewBox="0 0 134.38 70.37"><defs><style>.cls-1{fill:#fff;}.cls-2{fill:#d1d3d4;}</style></defs><title>rama_home</title><g id="elementos_varios" data-name="elementos varios"><path class="cls-1" d="M112,39.12a32.27,32.27,0,0,1,3.59-11.25c1.05-1.92,2.63-5,5.28-3.45s1.65,4.9.56,7.09a17.86,17.86,0,0,1-1.36,2.27,36.42,36.42,0,0,1,5.46-1.65c2.69-.58,7.27-1.08,8.52,2.21,3,7.82-14.95,6.11-20.14,5.57A1.08,1.08,0,0,1,112,39.12Z"/><path class="cls-1" d="M109.49,61.83A20.29,20.29,0,0,1,111.17,51a1.08,1.08,0,0,1,2.05.39,1,1,0,0,1,.95.17c3,2.26,6.12,4.4,9,6.81,1.49,1.26,3.87,3.89,2.23,5.92s-4.16.63-5.47-.86c-.85-1-1.67-2-2.48-3a20.52,20.52,0,0,1,.78,4.71c.09,2.31-1,5.63-3.9,5.17C110.88,69.79,109.85,64.65,109.49,61.83Z"/><path class="cls-1" d="M131,53.78a36.08,36.08,0,0,0-5.27-4.68,23.14,23.14,0,0,0,6-.45,1.08,1.08,0,0,0,.3-2,25.92,25.92,0,0,0-16.13-2.44,1.11,1.11,0,0,0-.34,2,1.08,1.08,0,0,0,.16.23c3.9,4.2,8.27,8.6,14.31,9C130.82,55.52,131.71,54.51,131,53.78ZM127.24,47a20.94,20.94,0,0,1-6.77-1A23.74,23.74,0,0,1,127.24,47Zm-6.66,1.4a32.44,32.44,0,0,1,6.1,4.12A19.67,19.67,0,0,1,120.57,48.39Z"/><path class="cls-1" d="M104.34,24.65A9.17,9.17,0,0,1,102,31.13c3.36-.57,6.7-.07,9.39,2.73a1.09,1.09,0,0,1-.28,1.82,18.45,18.45,0,0,1-16.45.46l-.8.37a.92.92,0,0,1-.93,0,.91.91,0,0,1-.68-1.38l.39-.65a1.11,1.11,0,0,1,.71-1.11,34.48,34.48,0,0,1,9.29-9.42A1.08,1.08,0,0,1,104.34,24.65Z"/><path class="cls-1" d="M46.81,17.2a1.1,1.1,0,0,1-.6-1.93l0,0A18.2,18.2,0,0,1,49.47.39a1.07,1.07,0,0,1,1.69,0,12.66,12.66,0,0,1,1,10.37,27.94,27.94,0,0,1,4.1-2c2-.77,5.28-1.23,6.71.88,1.84,2.72-1.36,4.95-3.65,5.61A45.72,45.72,0,0,1,48.88,17c-.1,1-1.66,1.44-2,.31Z"/><path class="cls-1" d="M84.62,30.22c-1.78-3.61-7.27-16-.69-17.06,3.2-.51,4.13,3.71,4.68,6,.23,1,.4,1.93.53,2.9a37.89,37.89,0,0,1,4-7.59,1.08,1.08,0,0,1,1.82.28A11,11,0,0,1,92.37,27a1.11,1.11,0,0,1-.64,1.81,14.83,14.83,0,0,0-2.48.65l-.06.31a1.07,1.07,0,0,1-1.86.54c-.23.12-.46.25-.69.39a1.2,1.2,0,0,1-.89.38A1.17,1.17,0,0,1,84.62,30.22Z"/><path class="cls-1" d="M56.52,22.25a49.35,49.35,0,0,1,8.94-8.1c2-1.41,5.41-3.85,7.76-1.68,2.14,2,.67,5.11-1.36,6.44a26.54,26.54,0,0,1-4.35,2.24c2-.06,3.9,0,5.86.09,2.64.17,7.88.77,6.9,4.78-.87,3.54-6.69,2.1-9.15,1.65a36.06,36.06,0,0,1-10.63-3.76l-.29,0a1,1,0,0,1-1.14-.84L58.85,23l-.06-.05-.61.67C57.28,24.63,55.62,23.29,56.52,22.25Z"/><path class="cls-1" d="M80.69,54.46a34.25,34.25,0,0,1-3.85-12.32,1,1,0,0,1,.18-.72c-.71-.63-.32-2.1.81-1.86A35.25,35.25,0,0,1,97.1,50.76a1.07,1.07,0,0,1-.23,1.49c-2.32,1.69-5.09,1-7.44-.28-1.08-.6-2.14-1.28-3.17-2a64.24,64.24,0,0,1,3.67,5.64c.78,1.35,2,3,1.67,4.67a2.92,2.92,0,0,1-2.82,2.27C85.05,62.75,82.18,57.21,80.69,54.46Z"/><path class="cls-1" d="M59.74,58.47c-1.81-2.66-1-7.6-.19-10.45a18.55,18.55,0,0,1,5.56-8.7c.94-.84,2.07.55,1.46,1.48a.91.91,0,0,1,.82.25,36.34,36.34,0,0,1,7.55,9.56c1.15,2.12,3.81,6.54.91,8.47-2.2,1.46-4.66-.93-5.69-2.71A29.25,29.25,0,0,1,67.81,51a18.75,18.75,0,0,1-2.13,5.36C64.6,58.2,61.62,61.23,59.74,58.47Z"/><path class="cls-1" d="M17.34,40.31c-2.47-1.51-.84-5.13-.09-7.16A32.56,32.56,0,0,1,23,23.42a1.08,1.08,0,0,1,1.8,1.12,14.85,14.85,0,0,1,5.89,8c.69,2.28,1.54,6.85-.44,8.75-2.21,2.13-4.48-1.11-5.13-3a28.67,28.67,0,0,1-1-3.67,22.84,22.84,0,0,1-1.32,3C21.85,39.47,19.71,41.76,17.34,40.31Z"/><path class="cls-1" d="M35.82,37.62A31.48,31.48,0,0,1,35,25.35c-.76-.62.05-2.12,1.2-1.76a36.91,36.91,0,0,1,12.13,6.33c1.77,1.4,6.71,4.82,4.58,7.59-2,2.58-6,0-7.89-1.33a28.41,28.41,0,0,1-3-2.35c2.27,5.63,3.79,12-.82,11.53C37.84,45,36.53,40.26,35.82,37.62Z"/><path class="cls-2" d="M116.64,38.3a46.43,46.43,0,0,1-15,3,.53.53,0,0,0-.45.27C94.67,40,88.26,38.12,81.92,36a182.75,182.75,0,0,0,19.55-1.28.64.64,0,0,0-.15-1.27,182.82,182.82,0,0,1-18.48,1.27,26,26,0,0,0,8.65-8.18c.45-.68-.54-1.49-1-.8a25,25,0,0,1-10.56,9.05.64.64,0,0,0-.38.43C67.87,31.32,56.4,26.69,45.11,21.67q11.78.72,23.58.3c.82,0,.67-1.3-.15-1.27A240.37,240.37,0,0,1,44,20.31q5.12-2.85,10-6c.69-.45-.07-1.48-.76-1q-5.66,3.66-11.58,6.87-8.22-3.72-16.33-7.66l-4-1.94q-.59.43-1.22.85l.18.09a.6.6,0,0,0-.25.75L26,28.37c.28.77,1.47.3,1.19-.47L22,13.64a103.76,103.76,0,0,1,18,16c.54.61,1.58-.14,1-.76A105.26,105.26,0,0,0,22.8,12.66C35.77,19,48.88,25,62.28,30.31a.63.63,0,0,0,0,.5L67,44.3c.27.78,1.46.31,1.19-.47l-4-11.57L79.88,43.49c.67.48,1.48-.52.8-1L65.14,31.43c8.17,3.15,16.45,6,24.87,8.49q6,1.77,12.15,3.24,6.31,5,12.14,10.62c.6.57,1.39-.43.8-1q-4.87-4.67-10.08-9,5.56,1.26,11.18,2.26c.81.14,1-1.12.18-1.27q-6-1-11.82-2.41a47.48,47.48,0,0,0,12.55-2.91A.64.64,0,0,0,116.64,38.3Z"/></g></svg>